<?xml version="1.0" encoding="utf-8" standalone="no"?>
<!DOCTYPE svg PUBLIC "-//W3C//DTD SVG 1.1//EN"
  "http://www.w3.org/Graphics/SVG/1.1/DTD/svg11.dtd">
<svg xmlns:xlink="http://www.w3.org/1999/xlink" width="460.8pt" height="345.6pt" viewBox="0 0 460.8 345.6" xmlns="http://www.w3.org/2000/svg" version="1.1">
 <metadata>
  <rdf:RDF xmlns:dc="http://purl.org/dc/elements/1.1/" xmlns:cc="http://creativecommons.org/ns#" xmlns:rdf="http://www.w3.org/1999/02/22-rdf-syntax-ns#">
   <cc:Work>
    <dc:type rdf:resource="http://purl.org/dc/dcmitype/StillImage"/>
    <dc:date>2024-07-19T12:18:01.794030</dc:date>
    <dc:format>image/svg+xml</dc:format>
    <dc:creator>
     <cc:Agent>
      <dc:title>Matplotlib v3.9.1, https://matplotlib.org/</dc:title>
     </cc:Agent>
    </dc:creator>
   </cc:Work>
  </rdf:RDF>
 </metadata>
 <defs>
  <style type="text/css">*{stroke-linejoin: round; stroke-linecap: butt}</style>
 </defs>
 <g id="figure_1">
  <g id="patch_1">
   <path d="M 0 345.6 
L 460.8 345.6 
L 460.8 0 
L 0 0 
z
" style="fill: #ffffff"/>
  </g>
  <g id="axes_1">
   <g id="patch_2">
    <path d="M 55.147927 303.237517 
L 224.46 303.237517 
L 224.46 11.88 
L 55.147927 11.88 
z
" style="fill: #ffffff"/>
   </g>
   <g id="PolyCollection_1">
    <defs>
     <path id="ma18aab11fd" d="M 62.84393 -101.328032 
L 62.84393 -76.320464 
L 101.323947 -76.320464 
L 139.803963 -76.320464 
L 178.28398 -76.320464 
L 216.763997 -76.320464 
L 216.763997 -101.328032 
L 216.763997 -101.328032 
L 178.28398 -101.328032 
L 139.803963 -101.328032 
L 101.323947 -101.328032 
L 62.84393 -101.328032 
z
" style="stroke: #1f77b4; stroke-opacity: 0.1"/>
    </defs>
    <g clip-path="url(#pe2001f59c3)">
     <use xlink:href="#ma18aab11fd" x="0" y="345.6" style="fill: #1f77b4; fill-opacity: 0.1; stroke: #1f77b4; stroke-opacity: 0.1"/>
    </g>
   </g>
   <g id="PolyCollection_2">
    <defs>
     <path id="m0d9c45387f" d="M 62.84393 -320.476476 
L 62.84393 -290.302569 
L 101.323947 -290.302569 
L 139.803963 -290.302569 
L 178.28398 -290.302569 
L 216.763997 -290.302569 
L 216.763997 -320.476476 
L 216.763997 -320.476476 
L 178.28398 -320.476476 
L 139.803963 -320.476476 
L 101.323947 -320.476476 
L 62.84393 -320.476476 
z
" style="stroke: #ff7f0e; stroke-opacity: 0.1"/>
    </defs>
    <g clip-path="url(#pe2001f59c3)">
     <use xlink:href="#m0d9c45387f" x="0" y="345.6" style="fill: #ff7f0e; fill-opacity: 0.1; stroke: #ff7f0e; stroke-opacity: 0.1"/>
    </g>
   </g>
   <g id="matplotlib.axis_1">
    <g id="xtick_1">
     <g id="line2d_1">
      <path d="M 62.84393 303.237517 
L 62.84393 11.88 
" clip-path="url(#pe2001f59c3)" style="fill: none; stroke: #b0b0b0; stroke-width: 0.8; stroke-linecap: square"/>
     </g>
     <g id="line2d_2">
      <defs>
       <path id="ma10910a087" d="M 0 0 
L 0 3.5 
" style="stroke: #000000; stroke-width: 0.8"/>
      </defs>
      <g>
       <use xlink:href="#ma10910a087" x="62.84393" y="303.237517" style="stroke: #000000; stroke-width: 0.8"/>
      </g>
     </g>
     <g id="text_1">
      <!-- 1 -->
      <g transform="translate(60.104196 317.847864) scale(0.11 -0.11)">
       <defs>
        <path id="CMR17-31" d="M 1702 4058 
C 1702 4192 1696 4192 1606 4192 
C 1357 3916 979 3827 621 3827 
C 602 3827 570 3827 563 3808 
C 557 3795 557 3782 557 3648 
C 755 3648 1088 3686 1344 3839 
L 1344 461 
C 1344 236 1331 160 781 160 
L 589 160 
L 589 0 
C 896 0 1216 0 1523 0 
C 1830 0 2150 0 2458 0 
L 2458 160 
L 2266 160 
C 1715 160 1702 230 1702 458 
L 1702 4058 
z
" transform="scale(0.015625)"/>
       </defs>
       <use xlink:href="#CMR17-31" transform="scale(0.996264)"/>
      </g>
     </g>
    </g>
    <g id="xtick_2">
     <g id="line2d_3">
      <path d="M 101.323947 303.237517 
L 101.323947 11.88 
" clip-path="url(#pe2001f59c3)" style="fill: none; stroke: #b0b0b0; stroke-width: 0.8; stroke-linecap: square"/>
     </g>
     <g id="line2d_4">
      <g>
       <use xlink:href="#ma10910a087" x="101.323947" y="303.237517" style="stroke: #000000; stroke-width: 0.8"/>
      </g>
     </g>
     <g id="text_2">
      <!-- 2 -->
      <g transform="translate(98.584213 317.847864) scale(0.11 -0.11)">
       <defs>
        <path id="CMR17-32" d="M 2669 989 
L 2554 989 
C 2490 536 2438 459 2413 420 
C 2381 369 1920 369 1830 369 
L 602 369 
C 832 619 1280 1072 1824 1597 
C 2214 1967 2669 2402 2669 3035 
C 2669 3790 2067 4224 1395 4224 
C 691 4224 262 3604 262 3030 
C 262 2780 448 2748 525 2748 
C 589 2748 781 2787 781 3010 
C 781 3207 614 3264 525 3264 
C 486 3264 448 3258 422 3245 
C 544 3790 915 4058 1306 4058 
C 1862 4058 2227 3617 2227 3035 
C 2227 2479 1901 2000 1536 1584 
L 262 146 
L 262 0 
L 2515 0 
L 2669 989 
z
" transform="scale(0.015625)"/>
       </defs>
       <use xlink:href="#CMR17-32" transform="scale(0.996264)"/>
      </g>
     </g>
    </g>
    <g id="xtick_3">
     <g id="line2d_5">
      <path d="M 139.803963 303.237517 
L 139.803963 11.88 
" clip-path="url(#pe2001f59c3)" style="fill: none; stroke: #b0b0b0; stroke-width: 0.8; stroke-linecap: square"/>
     </g>
     <g id="line2d_6">
      <g>
       <use xlink:href="#ma10910a087" x="139.803963" y="303.237517" style="stroke: #000000; stroke-width: 0.8"/>
      </g>
     </g>
     <g id="text_3">
      <!-- 3 -->
      <g transform="translate(137.06423 317.847864) scale(0.11 -0.11)">
       <defs>
        <path id="CMR17-33" d="M 1414 2157 
C 1984 2157 2234 1662 2234 1090 
C 2234 320 1824 25 1453 25 
C 1114 25 563 194 390 693 
C 422 680 454 680 486 680 
C 640 680 755 782 755 948 
C 755 1133 614 1216 486 1216 
C 378 1216 211 1165 211 926 
C 211 335 787 -128 1466 -128 
C 2176 -128 2720 430 2720 1085 
C 2720 1707 2208 2157 1600 2227 
C 2086 2328 2554 2756 2554 3329 
C 2554 3820 2048 4179 1472 4179 
C 890 4179 378 3829 378 3329 
C 378 3110 544 3072 627 3072 
C 762 3072 877 3155 877 3321 
C 877 3486 762 3569 627 3569 
C 602 3569 570 3569 544 3557 
C 730 3959 1235 4032 1459 4032 
C 1683 4032 2106 3925 2106 3320 
C 2106 3143 2080 2828 1862 2550 
C 1670 2304 1453 2304 1242 2284 
C 1210 2284 1062 2269 1037 2269 
C 992 2263 966 2257 966 2208 
C 966 2163 973 2157 1101 2157 
L 1414 2157 
z
" transform="scale(0.015625)"/>
       </defs>
       <use xlink:href="#CMR17-33" transform="scale(0.996264)"/>
      </g>
     </g>
    </g>
    <g id="xtick_4">
     <g id="line2d_7">
      <path d="M 178.28398 303.237517 
L 178.28398 11.88 
" clip-path="url(#pe2001f59c3)" style="fill: none; stroke: #b0b0b0; stroke-width: 0.8; stroke-linecap: square"/>
     </g>
     <g id="line2d_8">
      <g>
       <use xlink:href="#ma10910a087" x="178.28398" y="303.237517" style="stroke: #000000; stroke-width: 0.8"/>
      </g>
     </g>
     <g id="text_4">
      <!-- 4 -->
      <g transform="translate(175.544246 317.847864) scale(0.11 -0.11)">
       <defs>
        <path id="CMR17-34" d="M 2150 4122 
C 2150 4256 2144 4256 2029 4256 
L 128 1254 
L 128 1088 
L 1779 1088 
L 1779 457 
C 1779 224 1766 160 1318 160 
L 1197 160 
L 1197 0 
C 1402 0 1747 0 1965 0 
C 2182 0 2528 0 2733 0 
L 2733 160 
L 2611 160 
C 2163 160 2150 224 2150 457 
L 2150 1088 
L 2803 1088 
L 2803 1254 
L 2150 1254 
L 2150 4122 
z
M 1798 3703 
L 1798 1254 
L 256 1254 
L 1798 3703 
z
" transform="scale(0.015625)"/>
       </defs>
       <use xlink:href="#CMR17-34" transform="scale(0.996264)"/>
      </g>
     </g>
    </g>
    <g id="xtick_5">
     <g id="line2d_9">
      <path d="M 216.763997 303.237517 
L 216.763997 11.88 
" clip-path="url(#pe2001f59c3)" style="fill: none; stroke: #b0b0b0; stroke-width: 0.8; stroke-linecap: square"/>
     </g>
     <g id="line2d_10">
      <g>
       <use xlink:href="#ma10910a087" x="216.763997" y="303.237517" style="stroke: #000000; stroke-width: 0.8"/>
      </g>
     </g>
     <g id="text_5">
      <!-- 5 -->
      <g transform="translate(214.024263 317.847864) scale(0.11 -0.11)">
       <defs>
        <path id="CMR17-35" d="M 730 3692 
C 794 3666 1056 3584 1325 3584 
C 1920 3584 2246 3911 2432 4100 
C 2432 4157 2432 4192 2394 4192 
C 2387 4192 2374 4192 2323 4163 
C 2099 4058 1837 3973 1517 3973 
C 1325 3973 1037 3999 723 4139 
C 653 4171 640 4171 634 4171 
C 602 4171 595 4164 595 4037 
L 595 2203 
C 595 2089 595 2057 659 2057 
C 691 2057 704 2070 736 2114 
C 941 2401 1222 2522 1542 2522 
C 1766 2522 2246 2382 2246 1289 
C 2246 1085 2246 715 2054 421 
C 1894 159 1645 25 1370 25 
C 947 25 518 320 403 814 
C 429 807 480 795 506 795 
C 589 795 749 840 749 1038 
C 749 1210 627 1280 506 1280 
C 358 1280 262 1190 262 1011 
C 262 454 704 -128 1382 -128 
C 2042 -128 2669 440 2669 1264 
C 2669 2030 2170 2624 1549 2624 
C 1222 2624 947 2503 730 2274 
L 730 3692 
z
" transform="scale(0.015625)"/>
       </defs>
       <use xlink:href="#CMR17-35" transform="scale(0.996264)"/>
      </g>
     </g>
    </g>
    <g id="text_6">
     <!-- Polynomial degree -->
     <g transform="translate(95.876923 331.589105) scale(0.11 -0.11)">
      <defs>
       <path id="CMR17-50" d="M 1267 2042 
L 2291 2042 
C 3117 2042 3718 2578 3718 3184 
C 3718 3791 3130 4352 2291 4352 
L 333 4352 
L 333 4186 
C 774 4186 845 4186 845 3899 
L 845 446 
C 845 160 774 160 333 160 
L 333 0 
C 518 0 858 0 1056 0 
C 1254 0 1594 0 1779 0 
L 1779 160 
C 1338 160 1267 160 1267 446 
L 1267 2042 
z
M 1254 2176 
L 1254 3938 
C 1254 4155 1267 4186 1523 4186 
L 2170 4186 
C 2995 4186 3232 3714 3232 3184 
C 3232 2604 2950 2176 2170 2176 
L 1254 2176 
z
" transform="scale(0.015625)"/>
       <path id="CMR17-6f" d="M 2758 1356 
C 2758 2176 2163 2816 1466 2816 
C 768 2816 173 2176 173 1356 
C 173 551 768 -64 1466 -64 
C 2163 -64 2758 551 2758 1356 
z
M 1466 51 
C 1165 51 909 230 762 480 
C 602 767 582 1126 582 1408 
C 582 1677 595 2010 762 2298 
C 890 2509 1139 2714 1466 2714 
C 1754 2714 1997 2554 2150 2330 
C 2349 2029 2349 1607 2349 1408 
C 2349 1158 2336 775 2163 467 
C 1984 173 1709 51 1466 51 
z
" transform="scale(0.015625)"/>
       <path id="CMR17-6c" d="M 979 4396 
L 218 4326 
L 218 4160 
C 595 4160 653 4122 653 3817 
L 653 426 
C 653 184 627 153 218 153 
L 218 -13 
C 371 0 653 0 813 0 
C 979 0 1261 0 1414 -13 
L 1414 153 
C 1005 153 979 178 979 426 
L 979 4396 
z
" transform="scale(0.015625)"/>
       <path id="CMR17-79" d="M 2496 2197 
C 2656 2586 2944 2586 3034 2586 
L 3034 2752 
C 2912 2752 2752 2752 2630 2752 
C 2496 2752 2285 2752 2157 2758 
L 2157 2592 
C 2400 2573 2406 2394 2406 2343 
C 2406 2280 2394 2248 2362 2171 
L 1664 449 
L 902 2306 
C 870 2382 870 2426 870 2433 
C 870 2573 1018 2586 1171 2586 
L 1171 2758 
C 1018 2752 742 2752 582 2752 
C 410 2752 205 2752 64 2758 
L 64 2586 
C 410 2586 448 2554 531 2350 
L 1485 15 
C 1197 -738 1030 -1178 627 -1178 
C 557 -1178 397 -1159 282 -1044 
C 429 -1031 493 -942 493 -833 
C 493 -725 416 -629 288 -629 
C 147 -629 77 -725 77 -840 
C 77 -1095 339 -1280 627 -1280 
C 998 -1280 1229 -922 1357 -604 
L 2496 2197 
z
" transform="scale(0.015625)"/>
       <path id="CMR17-6e" d="M 2656 1933 
C 2656 2259 2592 2790 1837 2790 
C 1331 2790 1069 2400 973 2144 
L 966 2144 
L 966 2790 
L 211 2720 
L 211 2554 
C 589 2554 646 2515 646 2208 
L 646 428 
C 646 184 621 153 211 153 
L 211 -13 
C 365 0 646 0 813 0 
C 979 0 1267 0 1421 -13 
L 1421 153 
C 1011 153 986 178 986 428 
L 986 1658 
C 986 2247 1344 2688 1792 2688 
C 2266 2688 2317 2266 2317 1958 
L 2317 428 
C 2317 184 2291 153 1882 153 
L 1882 -13 
C 2035 0 2317 0 2483 0 
C 2650 0 2938 0 3091 -13 
L 3091 153 
C 2682 153 2656 178 2656 428 
L 2656 1933 
z
" transform="scale(0.015625)"/>
       <path id="CMR17-6d" d="M 4326 1933 
C 4326 2252 4269 2790 3507 2790 
C 3072 2790 2771 2496 2656 2151 
L 2650 2151 
C 2573 2676 2195 2790 1837 2790 
C 1331 2790 1069 2400 973 2144 
L 966 2144 
L 966 2790 
L 211 2720 
L 211 2554 
C 589 2554 646 2515 646 2208 
L 646 428 
C 646 184 621 153 211 153 
L 211 -13 
C 365 0 646 0 813 0 
C 979 0 1267 0 1421 -13 
L 1421 153 
C 1011 153 986 178 986 428 
L 986 1658 
C 986 2247 1344 2688 1792 2688 
C 2266 2688 2317 2266 2317 1958 
L 2317 428 
C 2317 184 2291 153 1882 153 
L 1882 -13 
C 2035 0 2317 0 2483 0 
C 2650 0 2938 0 3091 -13 
L 3091 153 
C 2682 153 2656 178 2656 428 
L 2656 1658 
C 2656 2247 3014 2688 3462 2688 
C 3936 2688 3987 2266 3987 1958 
L 3987 428 
C 3987 184 3962 153 3552 153 
L 3552 -13 
C 3706 0 3987 0 4154 0 
C 4320 0 4608 0 4762 -13 
L 4762 153 
C 4352 153 4326 178 4326 428 
L 4326 1933 
z
" transform="scale(0.015625)"/>
       <path id="CMR17-69" d="M 992 3909 
C 992 4049 877 4170 730 4170 
C 589 4170 467 4056 467 3909 
C 467 3769 582 3648 730 3648 
C 870 3648 992 3763 992 3909 
z
M 243 2706 
L 243 2541 
C 602 2541 653 2502 653 2197 
L 653 427 
C 653 184 627 153 218 153 
L 218 -13 
C 371 0 646 0 806 0 
C 960 0 1222 0 1370 -13 
L 1370 153 
C 992 153 979 191 979 420 
L 979 2776 
L 243 2706 
z
" transform="scale(0.015625)"/>
       <path id="CMR17-61" d="M 2304 1653 
C 2304 2072 2304 2294 2035 2543 
C 1798 2752 1523 2816 1306 2816 
C 800 2816 435 2407 435 1971 
C 435 1728 627 1728 666 1728 
C 749 1728 896 1778 896 1954 
C 896 2112 774 2181 666 2181 
C 640 2181 608 2174 589 2168 
C 723 2592 1069 2714 1293 2714 
C 1613 2714 1965 2429 1965 1885 
L 1965 1600 
C 1587 1600 1133 1549 774 1357 
C 371 1133 256 813 256 570 
C 256 77 832 -64 1171 -64 
C 1523 -64 1850 139 1990 511 
C 2003 233 2182 -18 2464 -18 
C 2598 -18 2938 70 2938 567 
L 2938 920 
L 2822 920 
L 2822 562 
C 2822 178 2650 128 2566 128 
C 2304 128 2304 458 2304 738 
L 2304 1653 
z
M 1965 870 
C 1965 317 1568 38 1216 38 
C 896 38 646 275 646 570 
C 646 761 730 1100 1101 1305 
C 1408 1478 1760 1504 1965 1504 
L 1965 870 
z
" transform="scale(0.015625)"/>
       <path id="CMR17-64" d="M 1869 4326 
L 1869 4160 
C 2246 4160 2304 4122 2304 3820 
L 2304 2345 
C 2278 2377 2016 2790 1498 2790 
C 845 2790 211 2208 211 1364 
C 211 525 806 -64 1434 -64 
C 1978 -64 2259 337 2291 380 
L 2291 -63 
L 3066 -63 
L 3066 128 
C 2688 128 2630 166 2630 473 
L 2630 4396 
L 1869 4326 
z
M 2291 755 
C 2291 563 2176 390 2029 262 
C 1811 70 1594 38 1472 38 
C 1286 38 621 134 621 1356 
C 621 2612 1363 2688 1530 2688 
C 1824 2688 2061 2522 2208 2291 
C 2291 2157 2291 2138 2291 2023 
L 2291 755 
z
" transform="scale(0.015625)"/>
       <path id="CMR17-65" d="M 2438 1472 
C 2464 1498 2464 1511 2464 1576 
C 2464 2238 2118 2816 1389 2816 
C 710 2816 173 2169 173 1383 
C 173 551 781 -64 1459 -64 
C 2176 -64 2458 607 2458 740 
C 2458 784 2419 784 2406 784 
C 2362 784 2355 771 2330 696 
C 2189 265 1837 51 1504 51 
C 1229 51 954 203 781 480 
C 582 803 582 1176 582 1472 
L 2438 1472 
z
M 589 1568 
C 634 2505 1126 2714 1382 2714 
C 1818 2714 2112 2297 2118 1568 
L 589 1568 
z
" transform="scale(0.015625)"/>
       <path id="CMR17-67" d="M 710 1164 
C 832 1068 1043 960 1299 960 
C 1805 960 2240 1357 2240 1888 
C 2240 2054 2189 2310 1997 2509 
C 2176 2692 2438 2752 2586 2752 
C 2611 2752 2650 2752 2682 2734 
C 2656 2728 2598 2703 2598 2605 
C 2598 2527 2656 2471 2739 2471 
C 2835 2471 2886 2533 2886 2614 
C 2886 2731 2790 2854 2586 2854 
C 2330 2854 2106 2738 1926 2580 
C 1734 2753 1504 2816 1299 2816 
C 794 2816 358 2419 358 1888 
C 358 1522 570 1292 634 1228 
C 442 1004 442 743 442 711 
C 442 545 506 302 723 168 
C 390 85 128 -169 128 -486 
C 128 -943 736 -1280 1466 -1280 
C 2170 -1280 2803 -956 2803 -479 
C 2803 384 1856 384 1363 384 
C 1216 384 954 384 922 391 
C 723 423 589 602 589 826 
C 589 883 589 1024 710 1164 
z
M 1299 1068 
C 736 1068 736 1760 736 1889 
C 736 2016 736 2708 1299 2708 
C 1862 2708 1862 2016 1862 1889 
C 1862 1760 1862 1068 1299 1068 
z
M 1466 -1171 
C 826 -1171 384 -835 384 -486 
C 384 -289 493 -105 634 -4 
C 794 104 858 104 1293 104 
C 1818 104 2547 104 2547 -486 
C 2547 -835 2106 -1171 1466 -1171 
z
" transform="scale(0.015625)"/>
       <path id="CMR17-72" d="M 960 1497 
C 960 2112 1222 2688 1702 2688 
C 1747 2688 1792 2682 1837 2662 
C 1837 2662 1696 2617 1696 2452 
C 1696 2298 1818 2234 1914 2234 
C 1990 2234 2131 2279 2131 2458 
C 2131 2663 1926 2790 1709 2790 
C 1222 2790 1011 2317 947 2093 
L 941 2093 
L 941 2790 
L 198 2720 
L 198 2554 
C 576 2554 634 2515 634 2208 
L 634 428 
C 634 184 608 153 198 153 
L 198 -13 
C 352 0 646 0 813 0 
C 998 0 1325 0 1498 -13 
L 1498 153 
C 1037 153 960 153 960 440 
L 960 1497 
z
" transform="scale(0.015625)"/>
      </defs>
      <use xlink:href="#CMR17-50" transform="scale(0.996264)"/>
      <use xlink:href="#CMR17-6f" transform="translate(59.983847 0) scale(0.996264)"/>
      <use xlink:href="#CMR17-6c" transform="translate(105.674324 0) scale(0.996264)"/>
      <use xlink:href="#CMR17-79" transform="translate(130.545382 0) scale(0.996264)"/>
      <use xlink:href="#CMR17-6e" transform="translate(178.838298 0) scale(0.996264)"/>
      <use xlink:href="#CMR17-6f" transform="translate(229.733668 0) scale(0.996264)"/>
      <use xlink:href="#CMR17-6d" transform="translate(275.424145 0) scale(0.996264)"/>
      <use xlink:href="#CMR17-69" transform="translate(352.343735 0) scale(0.996264)"/>
      <use xlink:href="#CMR17-61" transform="translate(377.214793 0) scale(0.996264)"/>
      <use xlink:href="#CMR17-6c" transform="translate(422.90527 0) scale(0.996264)"/>
      <use xlink:href="#CMR17-64" transform="translate(477.852295 0) scale(0.996264)"/>
      <use xlink:href="#CMR17-65" transform="translate(528.747665 0) scale(0.996264)"/>
      <use xlink:href="#CMR17-67" transform="translate(569.233325 0) scale(0.996264)"/>
      <use xlink:href="#CMR17-72" transform="translate(614.923803 0) scale(0.996264)"/>
      <use xlink:href="#CMR17-65" transform="translate(650.20457 0) scale(0.996264)"/>
      <use xlink:href="#CMR17-65" transform="translate(690.690231 0) scale(0.996264)"/>
     </g>
    </g>
   </g>
   <g id="matplotlib.axis_2">
    <g id="ytick_1">
     <g id="line2d_11">
      <path d="M 55.147927 282.264749 
L 224.46 282.264749 
" clip-path="url(#pe2001f59c3)" style="fill: none; stroke: #b0b0b0; stroke-width: 0.8; stroke-linecap: square"/>
     </g>
     <g id="line2d_12">
      <defs>
       <path id="mc97c2f044d" d="M 0 0 
L -3.5 0 
" style="stroke: #000000; stroke-width: 0.8"/>
      </defs>
      <g>
       <use xlink:href="#mc97c2f044d" x="55.147927" y="282.264749" style="stroke: #000000; stroke-width: 0.8"/>
      </g>
     </g>
     <g id="text_7">
      <!-- $\mathdefault{−8.5}$ -->
      <g transform="translate(25.621241 286.069922) scale(0.11 -0.11)">
       <defs>
        <path id="CMSY10-0" d="M 4218 1472 
C 4326 1472 4442 1472 4442 1600 
C 4442 1728 4326 1728 4218 1728 
L 755 1728 
C 646 1728 531 1728 531 1600 
C 531 1472 646 1472 755 1472 
L 4218 1472 
z
" transform="scale(0.015625)"/>
        <path id="CMR17-38" d="M 1741 2264 
C 2144 2467 2554 2773 2554 3263 
C 2554 3841 1990 4179 1472 4179 
C 890 4179 378 3759 378 3180 
C 378 3021 416 2747 666 2505 
C 730 2442 998 2251 1171 2130 
C 883 1983 211 1634 211 934 
C 211 279 838 -128 1459 -128 
C 2144 -128 2720 362 2720 1010 
C 2720 1590 2330 1857 2074 2029 
L 1741 2264 
z
M 902 2822 
C 851 2854 595 3051 595 3351 
C 595 3739 998 4032 1459 4032 
C 1965 4032 2336 3676 2336 3262 
C 2336 2669 1670 2331 1638 2331 
C 1632 2331 1626 2331 1574 2370 
L 902 2822 
z
M 2080 1519 
C 2176 1449 2483 1240 2483 851 
C 2483 381 2010 25 1472 25 
C 890 25 448 438 448 940 
C 448 1443 838 1862 1280 2060 
L 2080 1519 
z
" transform="scale(0.015625)"/>
        <path id="CMMI12-3a" d="M 1178 307 
C 1178 492 1024 619 870 619 
C 685 619 557 466 557 313 
C 557 128 710 0 864 0 
C 1050 0 1178 153 1178 307 
z
" transform="scale(0.015625)"/>
       </defs>
       <use xlink:href="#CMSY10-0" transform="scale(0.996264)"/>
       <use xlink:href="#CMR17-38" transform="translate(77.487468 0) scale(0.996264)"/>
       <use xlink:href="#CMMI12-3a" transform="translate(123.177945 0) scale(0.996264)"/>
       <use xlink:href="#CMR17-35" transform="translate(150.275122 0) scale(0.996264)"/>
      </g>
     </g>
    </g>
    <g id="ytick_2">
     <g id="line2d_13">
      <path d="M 55.147927 224.387061 
L 224.46 224.387061 
" clip-path="url(#pe2001f59c3)" style="fill: none; stroke: #b0b0b0; stroke-width: 0.8; stroke-linecap: square"/>
     </g>
     <g id="line2d_14">
      <g>
       <use xlink:href="#mc97c2f044d" x="55.147927" y="224.387061" style="stroke: #000000; stroke-width: 0.8"/>
      </g>
     </g>
     <g id="text_8">
      <!-- $\mathdefault{−8.0}$ -->
      <g transform="translate(25.621241 228.192235) scale(0.11 -0.11)">
       <defs>
        <path id="CMR17-30" d="M 2688 2025 
C 2688 2416 2682 3080 2413 3591 
C 2176 4039 1798 4198 1466 4198 
C 1158 4198 768 4058 525 3597 
C 269 3118 243 2524 243 2025 
C 243 1661 250 1106 448 619 
C 723 -39 1216 -128 1466 -128 
C 1760 -128 2208 -7 2470 600 
C 2662 1042 2688 1559 2688 2025 
z
M 1466 -26 
C 1056 -26 813 325 723 812 
C 653 1188 653 1738 653 2096 
C 653 2588 653 2997 736 3387 
C 858 3929 1216 4096 1466 4096 
C 1728 4096 2067 3923 2189 3400 
C 2272 3036 2278 2607 2278 2096 
C 2278 1680 2278 1169 2202 792 
C 2067 95 1690 -26 1466 -26 
z
" transform="scale(0.015625)"/>
       </defs>
       <use xlink:href="#CMSY10-0" transform="scale(0.996264)"/>
       <use xlink:href="#CMR17-38" transform="translate(77.487468 0) scale(0.996264)"/>
       <use xlink:href="#CMMI12-3a" transform="translate(123.177945 0) scale(0.996264)"/>
       <use xlink:href="#CMR17-30" transform="translate(150.275122 0) scale(0.996264)"/>
      </g>
     </g>
    </g>
    <g id="ytick_3">
     <g id="line2d_15">
      <path d="M 55.147927 166.509374 
L 224.46 166.509374 
" clip-path="url(#pe2001f59c3)" style="fill: none; stroke: #b0b0b0; stroke-width: 0.8; stroke-linecap: square"/>
     </g>
     <g id="line2d_16">
      <g>
       <use xlink:href="#mc97c2f044d" x="55.147927" y="166.509374" style="stroke: #000000; stroke-width: 0.8"/>
      </g>
     </g>
     <g id="text_9">
      <!-- $\mathdefault{−7.5}$ -->
      <g transform="translate(25.621241 170.314547) scale(0.11 -0.11)">
       <defs>
        <path id="CMR17-37" d="M 2886 3941 
L 2886 4081 
L 1382 4081 
C 634 4081 621 4165 595 4288 
L 480 4288 
L 294 3094 
L 410 3094 
C 429 3215 474 3540 550 3661 
C 589 3712 1062 3712 1171 3712 
L 2579 3712 
L 1869 2661 
C 1395 1954 1069 999 1069 165 
C 1069 89 1069 -128 1299 -128 
C 1530 -128 1530 89 1530 171 
L 1530 465 
C 1530 1508 1709 2196 2003 2636 
L 2886 3941 
z
" transform="scale(0.015625)"/>
       </defs>
       <use xlink:href="#CMSY10-0" transform="scale(0.996264)"/>
       <use xlink:href="#CMR17-37" transform="translate(77.487468 0) scale(0.996264)"/>
       <use xlink:href="#CMMI12-3a" transform="translate(123.177945 0) scale(0.996264)"/>
       <use xlink:href="#CMR17-35" transform="translate(150.275122 0) scale(0.996264)"/>
      </g>
     </g>
    </g>
    <g id="ytick_4">
     <g id="line2d_17">
      <path d="M 55.147927 108.631686 
L 224.46 108.631686 
" clip-path="url(#pe2001f59c3)" style="fill: none; stroke: #b0b0b0; stroke-width: 0.8; stroke-linecap: square"/>
     </g>
     <g id="line2d_18">
      <g>
       <use xlink:href="#mc97c2f044d" x="55.147927" y="108.631686" style="stroke: #000000; stroke-width: 0.8"/>
      </g>
     </g>
     <g id="text_10">
      <!-- $\mathdefault{−7.0}$ -->
      <g transform="translate(25.621241 112.436859) scale(0.11 -0.11)">
       <use xlink:href="#CMSY10-0" transform="scale(0.996264)"/>
       <use xlink:href="#CMR17-37" transform="translate(77.487468 0) scale(0.996264)"/>
       <use xlink:href="#CMMI12-3a" transform="translate(123.177945 0) scale(0.996264)"/>
       <use xlink:href="#CMR17-30" transform="translate(150.275122 0) scale(0.996264)"/>
      </g>
     </g>
    </g>
    <g id="ytick_5">
     <g id="line2d_19">
      <path d="M 55.147927 50.753998 
L 224.46 50.753998 
" clip-path="url(#pe2001f59c3)" style="fill: none; stroke: #b0b0b0; stroke-width: 0.8; stroke-linecap: square"/>
     </g>
     <g id="line2d_20">
      <g>
       <use xlink:href="#mc97c2f044d" x="55.147927" y="50.753998" style="stroke: #000000; stroke-width: 0.8"/>
      </g>
     </g>
     <g id="text_11">
      <!-- $\mathdefault{−6.5}$ -->
      <g transform="translate(25.621241 54.559172) scale(0.11 -0.11)">
       <defs>
        <path id="CMR17-36" d="M 678 2176 
C 678 3690 1395 4032 1811 4032 
C 1946 4032 2272 4009 2400 3776 
C 2298 3776 2106 3776 2106 3553 
C 2106 3381 2246 3323 2336 3323 
C 2394 3323 2566 3348 2566 3560 
C 2566 3954 2246 4179 1805 4179 
C 1043 4179 243 3390 243 1984 
C 243 253 966 -128 1478 -128 
C 2099 -128 2688 427 2688 1283 
C 2688 2081 2170 2662 1517 2662 
C 1126 2662 838 2407 678 1960 
L 678 2176 
z
M 1478 25 
C 691 25 691 1200 691 1436 
C 691 1896 909 2560 1504 2560 
C 1613 2560 1926 2560 2138 2120 
C 2253 1870 2253 1609 2253 1289 
C 2253 944 2253 690 2118 434 
C 1978 171 1773 25 1478 25 
z
" transform="scale(0.015625)"/>
       </defs>
       <use xlink:href="#CMSY10-0" transform="scale(0.996264)"/>
       <use xlink:href="#CMR17-36" transform="translate(77.487468 0) scale(0.996264)"/>
       <use xlink:href="#CMMI12-3a" transform="translate(123.177945 0) scale(0.996264)"/>
       <use xlink:href="#CMR17-35" transform="translate(150.275122 0) scale(0.996264)"/>
      </g>
     </g>
    </g>
    <g id="text_12">
     <!-- Expectation values -->
     <g transform="translate(19.490347 202.870894) rotate(-90) scale(0.11 -0.11)">
      <defs>
       <path id="CMR17-45" d="M 3885 1615 
L 3770 1615 
C 3629 676 3546 166 2419 166 
L 1530 166 
C 1274 166 1261 197 1261 414 
L 1261 2176 
L 1862 2176 
C 2464 2176 2522 1960 2522 1430 
L 2637 1430 
L 2637 3081 
L 2522 3081 
C 2522 2557 2464 2342 1862 2342 
L 1261 2342 
L 1261 3913 
C 1261 4128 1274 4160 1530 4160 
L 2406 4160 
C 3398 4160 3514 3769 3603 2929 
L 3718 2929 
L 3565 4325 
L 326 4325 
L 326 4160 
C 768 4160 838 4160 838 3874 
L 838 451 
C 838 166 768 166 326 166 
L 326 0 
L 3654 0 
L 3885 1615 
z
" transform="scale(0.015625)"/>
       <path id="CMR17-78" d="M 1664 1477 
C 1856 1726 2074 2006 2253 2216 
C 2464 2458 2707 2560 2989 2560 
L 2989 2726 
C 2880 2726 2656 2726 2541 2726 
C 2368 2726 2170 2726 2022 2732 
L 2022 2566 
C 2112 2553 2163 2489 2163 2400 
C 2163 2285 2099 2215 2067 2171 
L 1594 1573 
L 1030 2306 
C 973 2376 973 2388 973 2420 
C 973 2497 1037 2560 1146 2560 
L 1146 2732 
C 992 2726 717 2726 557 2726 
C 384 2726 179 2726 38 2732 
L 38 2560 
C 384 2560 461 2534 614 2343 
L 1350 1395 
C 1363 1382 1395 1344 1395 1325 
C 1395 1299 838 619 768 530 
C 480 185 179 160 6 160 
L 6 0 
C 115 0 339 0 454 0 
C 582 0 864 0 979 -6 
L 979 160 
C 941 166 838 179 838 325 
C 838 440 890 510 947 586 
L 1478 1236 
L 2035 512 
C 2086 442 2163 346 2163 301 
C 2163 211 2086 160 1984 160 
L 1984 -6 
C 2138 0 2413 0 2573 0 
C 2746 0 2950 0 3091 -6 
L 3091 160 
C 2771 160 2675 172 2522 370 
L 1664 1477 
z
" transform="scale(0.015625)"/>
       <path id="CMR17-70" d="M 1408 -1063 
C 998 -1063 973 -1037 973 -789 
L 973 402 
C 1158 134 1427 -38 1766 -38 
C 2406 -38 3053 523 3053 1388 
C 3053 2191 2496 2802 1837 2802 
C 1453 2802 1139 2592 960 2338 
L 960 2802 
L 198 2732 
L 198 2567 
C 576 2567 634 2528 634 2223 
L 634 -789 
C 634 -1031 608 -1063 198 -1063 
L 198 -1228 
C 352 -1216 634 -1216 800 -1216 
C 966 -1216 1254 -1216 1408 -1228 
L 1408 -1063 
z
M 973 2012 
C 973 2102 973 2235 1222 2471 
C 1254 2497 1472 2688 1792 2688 
C 2259 2688 2643 2108 2643 1382 
C 2643 656 2234 64 1728 64 
C 1498 64 1248 172 1056 472 
C 973 612 973 650 973 752 
L 973 2012 
z
" transform="scale(0.015625)"/>
       <path id="CMR17-63" d="M 2234 2240 
C 2112 2240 1933 2240 1933 2017 
C 1933 1838 2080 1787 2163 1787 
C 2208 1787 2394 1807 2394 2024 
C 2394 2467 1958 2803 1466 2803 
C 787 2803 211 2178 211 1363 
C 211 516 813 -64 1466 -64 
C 2259 -64 2458 677 2458 748 
C 2458 774 2451 793 2406 793 
C 2362 793 2355 787 2330 703 
C 2163 180 1798 51 1523 51 
C 1114 51 621 427 621 1369 
C 621 2338 1094 2688 1472 2688 
C 1722 2688 2093 2573 2234 2240 
z
" transform="scale(0.015625)"/>
       <path id="CMR17-74" d="M 966 2560 
L 1862 2560 
L 1862 2725 
L 966 2725 
L 966 3904 
L 851 3904 
C 838 3245 614 2668 70 2668 
L 70 2560 
L 627 2560 
L 627 771 
C 627 650 627 -64 1370 -64 
C 1747 -64 1965 306 1965 777 
L 1965 1140 
L 1850 1140 
L 1850 783 
C 1850 344 1677 51 1408 51 
C 1222 51 966 178 966 758 
L 966 2560 
z
" transform="scale(0.015625)"/>
       <path id="CMR17-76" d="M 2502 2163 
C 2560 2304 2662 2560 3034 2560 
L 3034 2726 
C 2912 2726 2752 2726 2630 2726 
C 2496 2726 2285 2726 2157 2732 
L 2157 2566 
C 2317 2553 2406 2477 2406 2311 
C 2406 2253 2406 2240 2368 2151 
L 1664 377 
L 902 2286 
C 864 2369 864 2381 864 2407 
C 864 2560 1075 2560 1171 2560 
L 1171 2732 
C 1018 2726 736 2726 576 2726 
C 403 2726 205 2726 64 2732 
L 64 2560 
C 307 2560 442 2560 518 2362 
L 1446 44 
C 1485 -51 1491 -64 1549 -64 
C 1606 -64 1613 -51 1651 44 
L 2502 2163 
z
" transform="scale(0.015625)"/>
       <path id="CMR17-75" d="M 1882 2693 
L 1882 2528 
C 2259 2528 2317 2489 2317 2186 
L 2317 1032 
C 2317 500 2029 38 1555 38 
C 1030 38 986 348 986 678 
L 986 2763 
L 211 2693 
L 211 2528 
C 467 2528 640 2528 646 2274 
L 646 1058 
C 646 633 646 361 813 183 
C 896 101 1056 -64 1517 -64 
C 2061 -64 2272 377 2323 506 
L 2330 506 
L 2330 -63 
L 3091 -63 
L 3091 128 
C 2714 128 2656 166 2656 473 
L 2656 2763 
L 1882 2693 
z
" transform="scale(0.015625)"/>
       <path id="CMR17-73" d="M 1978 2697 
C 1978 2813 1971 2819 1933 2819 
C 1907 2819 1901 2813 1824 2717 
C 1805 2691 1747 2626 1728 2601 
C 1523 2819 1235 2819 1126 2819 
C 416 2819 160 2447 160 2076 
C 160 1498 813 1365 998 1325 
C 1402 1243 1542 1217 1677 1101 
C 1760 1025 1901 884 1901 654 
C 1901 384 1747 38 1158 38 
C 602 38 403 460 288 1021 
C 269 1110 269 1117 218 1117 
C 166 1117 160 1110 160 983 
L 160 63 
C 160 -51 166 -58 205 -58 
C 237 -58 243 -51 275 0 
C 314 57 410 211 448 276 
C 576 103 800 -64 1158 -64 
C 1792 -64 2131 283 2131 784 
C 2131 1112 1958 1285 1875 1362 
C 1683 1561 1459 1606 1190 1657 
C 838 1735 390 1825 390 2217 
C 390 2383 480 2737 1126 2737 
C 1811 2737 1850 2094 1862 1888 
C 1869 1856 1901 1849 1920 1849 
C 1978 1849 1978 1869 1978 1978 
L 1978 2697 
z
" transform="scale(0.015625)"/>
      </defs>
      <use xlink:href="#CMR17-45" transform="scale(0.996264)"/>
      <use xlink:href="#CMR17-78" transform="translate(62.586301 0) scale(0.996264)"/>
      <use xlink:href="#CMR17-70" transform="translate(110.879216 0) scale(0.996264)"/>
      <use xlink:href="#CMR17-65" transform="translate(164.377025 0) scale(0.996264)"/>
      <use xlink:href="#CMR17-63" transform="translate(204.862685 0) scale(0.996264)"/>
      <use xlink:href="#CMR17-74" transform="translate(245.348346 0) scale(0.996264)"/>
      <use xlink:href="#CMR17-61" transform="translate(280.629114 0) scale(0.996264)"/>
      <use xlink:href="#CMR17-74" transform="translate(326.319591 0) scale(0.996264)"/>
      <use xlink:href="#CMR17-69" transform="translate(361.600359 0) scale(0.996264)"/>
      <use xlink:href="#CMR17-6f" transform="translate(386.471417 0) scale(0.996264)"/>
      <use xlink:href="#CMR17-6e" transform="translate(432.161894 0) scale(0.996264)"/>
      <use xlink:href="#CMR17-76" transform="translate(513.13323 0) scale(0.996264)"/>
      <use xlink:href="#CMR17-61" transform="translate(556.221329 0) scale(0.996264)"/>
      <use xlink:href="#CMR17-6c" transform="translate(601.911807 0) scale(0.996264)"/>
      <use xlink:href="#CMR17-75" transform="translate(626.782865 0) scale(0.996264)"/>
      <use xlink:href="#CMR17-65" transform="translate(677.678235 0) scale(0.996264)"/>
      <use xlink:href="#CMR17-73" transform="translate(718.163895 0) scale(0.996264)"/>
     </g>
    </g>
   </g>
   <g id="line2d_21">
    <path d="M 55.147927 289.993994 
L 224.46 289.993994 
" clip-path="url(#pe2001f59c3)" style="fill: none; stroke: #ff0000; stroke-width: 0.8; stroke-linecap: square"/>
   </g>
   <g id="line2d_22">
    <path d="M 62.84393 189.799331 
L 101.323947 214.295049 
L 139.803963 204.924324 
L 178.28398 192.435539 
L 216.763997 188.318801 
" clip-path="url(#pe2001f59c3)" style="fill: none; stroke-dasharray: 0.8,1.32; stroke-dashoffset: 0; stroke: #e377c2; stroke-width: 0.8"/>
    <defs>
     <path id="m466e71e3ee" d="M -3 3 
L 3 -3 
M -3 -3 
L 3 3 
" style="stroke: #e377c2"/>
    </defs>
    <g clip-path="url(#pe2001f59c3)">
     <use xlink:href="#m466e71e3ee" x="62.84393" y="189.799331" style="fill: #e377c2; stroke: #e377c2"/>
     <use xlink:href="#m466e71e3ee" x="101.323947" y="214.295049" style="fill: #e377c2; stroke: #e377c2"/>
     <use xlink:href="#m466e71e3ee" x="139.803963" y="204.924324" style="fill: #e377c2; stroke: #e377c2"/>
     <use xlink:href="#m466e71e3ee" x="178.28398" y="192.435539" style="fill: #e377c2; stroke: #e377c2"/>
     <use xlink:href="#m466e71e3ee" x="216.763997" y="188.318801" style="fill: #e377c2; stroke: #e377c2"/>
    </g>
   </g>
   <g id="LineCollection_1">
    <path d="M 62.84393 200.529448 
L 62.84393 179.069214 
" clip-path="url(#pe2001f59c3)" style="fill: none; stroke: #e377c2; stroke-width: 0.8"/>
    <path d="M 101.323947 221.539887 
L 101.323947 207.050212 
" clip-path="url(#pe2001f59c3)" style="fill: none; stroke: #e377c2; stroke-width: 0.8"/>
    <path d="M 139.803963 211.769037 
L 139.803963 198.07961 
" clip-path="url(#pe2001f59c3)" style="fill: none; stroke: #e377c2; stroke-width: 0.8"/>
    <path d="M 178.28398 201.272209 
L 178.28398 183.598869 
" clip-path="url(#pe2001f59c3)" style="fill: none; stroke: #e377c2; stroke-width: 0.8"/>
    <path d="M 216.763997 201.245381 
L 216.763997 175.392221 
" clip-path="url(#pe2001f59c3)" style="fill: none; stroke: #e377c2; stroke-width: 0.8"/>
   </g>
   <g id="line2d_23">
    <defs>
     <path id="md8be741d5f" d="M 5 0 
L -5 -0 
" style="stroke: #e377c2; stroke-width: 2"/>
    </defs>
    <g clip-path="url(#pe2001f59c3)">
     <use xlink:href="#md8be741d5f" x="62.84393" y="200.529448" style="fill: #e377c2; stroke: #e377c2; stroke-width: 2"/>
     <use xlink:href="#md8be741d5f" x="101.323947" y="221.539887" style="fill: #e377c2; stroke: #e377c2; stroke-width: 2"/>
     <use xlink:href="#md8be741d5f" x="139.803963" y="211.769037" style="fill: #e377c2; stroke: #e377c2; stroke-width: 2"/>
     <use xlink:href="#md8be741d5f" x="178.28398" y="201.272209" style="fill: #e377c2; stroke: #e377c2; stroke-width: 2"/>
     <use xlink:href="#md8be741d5f" x="216.763997" y="201.245381" style="fill: #e377c2; stroke: #e377c2; stroke-width: 2"/>
    </g>
   </g>
   <g id="line2d_24">
    <g clip-path="url(#pe2001f59c3)">
     <use xlink:href="#md8be741d5f" x="62.84393" y="179.069214" style="fill: #e377c2; stroke: #e377c2; stroke-width: 2"/>
     <use xlink:href="#md8be741d5f" x="101.323947" y="207.050212" style="fill: #e377c2; stroke: #e377c2; stroke-width: 2"/>
     <use xlink:href="#md8be741d5f" x="139.803963" y="198.07961" style="fill: #e377c2; stroke: #e377c2; stroke-width: 2"/>
     <use xlink:href="#md8be741d5f" x="178.28398" y="183.598869" style="fill: #e377c2; stroke: #e377c2; stroke-width: 2"/>
     <use xlink:href="#md8be741d5f" x="216.763997" y="175.392221" style="fill: #e377c2; stroke: #e377c2; stroke-width: 2"/>
    </g>
   </g>
   <g id="line2d_25">
    <path d="M 55.147927 256.775752 
L 224.46 256.775752 
" clip-path="url(#pe2001f59c3)" style="fill: none; stroke: #1f77b4; stroke-width: 1.5; stroke-linecap: square"/>
   </g>
   <g id="line2d_26">
    <path d="M 55.147927 40.210477 
L 224.46 40.210477 
" clip-path="url(#pe2001f59c3)" style="fill: none; stroke: #ff7f0e; stroke-width: 1.5; stroke-linecap: square"/>
   </g>
   <g id="line2d_27"/>
   <g id="patch_3">
    <path d="M 55.147927 303.237517 
L 55.147927 11.88 
" style="fill: none; stroke: #000000; stroke-width: 0.8; stroke-linejoin: miter; stroke-linecap: square"/>
   </g>
   <g id="patch_4">
    <path d="M 224.46 303.237517 
L 224.46 11.88 
" style="fill: none; stroke: #000000; stroke-width: 0.8; stroke-linejoin: miter; stroke-linecap: square"/>
   </g>
   <g id="patch_5">
    <path d="M 55.147927 303.237517 
L 224.46 303.237517 
" style="fill: none; stroke: #000000; stroke-width: 0.8; stroke-linejoin: miter; stroke-linecap: square"/>
   </g>
   <g id="patch_6">
    <path d="M 55.147927 11.88 
L 224.46 11.88 
" style="fill: none; stroke: #000000; stroke-width: 0.8; stroke-linejoin: miter; stroke-linecap: square"/>
   </g>
   <g id="legend_1">
    <g id="patch_7">
     <path d="M 78.92675 192.255216 
L 200.681176 192.255216 
Q 202.207976 192.255216 202.207976 190.728416 
L 202.207976 124.389101 
Q 202.207976 122.862301 200.681176 122.862301 
L 78.92675 122.862301 
Q 77.39995 122.862301 77.39995 124.389101 
L 77.39995 190.728416 
Q 77.39995 192.255216 78.92675 192.255216 
z
" style="fill: #ffffff; opacity: 0.8; stroke: #cccccc; stroke-linejoin: miter"/>
    </g>
    <g id="line2d_28">
     <path d="M 80.45355 128.587801 
L 88.08755 128.587801 
L 95.72155 128.587801 
" style="fill: none; stroke: #ff0000; stroke-width: 0.8; stroke-linecap: square"/>
    </g>
    <g id="text_13">
     <!-- Exact Value -->
     <g transform="translate(101.82875 131.259701) scale(0.07634 -0.07634)">
      <defs>
       <path id="CMR17-56" d="M 3776 3745 
C 3834 3886 3936 4160 4365 4160 
L 4365 4332 
C 4218 4319 4051 4319 3891 4319 
C 3738 4319 3475 4319 3328 4332 
L 3328 4160 
C 3648 4160 3661 3936 3661 3898 
C 3661 3827 3642 3783 3622 3732 
L 2362 446 
L 1043 3886 
C 1024 3931 1011 3963 1011 3994 
C 1011 4160 1267 4160 1402 4160 
L 1402 4319 
C 1197 4319 896 4319 685 4319 
C 518 4319 218 4319 64 4332 
L 64 4160 
C 435 4160 506 4135 582 3931 
L 2106 -26 
C 2138 -115 2144 -128 2214 -128 
C 2285 -128 2291 -115 2323 -26 
L 3776 3745 
z
" transform="scale(0.015625)"/>
      </defs>
      <use xlink:href="#CMR17-45" transform="scale(0.996264)"/>
      <use xlink:href="#CMR17-78" transform="translate(62.586301 0) scale(0.996264)"/>
      <use xlink:href="#CMR17-61" transform="translate(110.879216 0) scale(0.996264)"/>
      <use xlink:href="#CMR17-63" transform="translate(156.569693 0) scale(0.996264)"/>
      <use xlink:href="#CMR17-74" transform="translate(197.055354 0) scale(0.996264)"/>
      <use xlink:href="#CMR17-56" transform="translate(262.412088 0) scale(0.996264)"/>
      <use xlink:href="#CMR17-61" transform="translate(323.677263 0) scale(0.996264)"/>
      <use xlink:href="#CMR17-6c" transform="translate(369.36774 0) scale(0.996264)"/>
      <use xlink:href="#CMR17-75" transform="translate(394.238798 0) scale(0.996264)"/>
      <use xlink:href="#CMR17-65" transform="translate(445.134168 0) scale(0.996264)"/>
     </g>
    </g>
    <g id="line2d_29">
     <path d="M 80.45355 139.227446 
L 88.08755 139.227446 
L 95.72155 139.227446 
" style="fill: none; stroke-dasharray: 0.8,1.32; stroke-dashoffset: 0; stroke: #e377c2; stroke-width: 0.8"/>
     <g>
      <use xlink:href="#m466e71e3ee" x="88.08755" y="139.227446" style="fill: #e377c2; stroke: #e377c2"/>
     </g>
    </g>
    <g id="text_14">
     <!-- Mean ZNE at $0.001$ -->
     <g transform="translate(101.82875 141.899346) scale(0.07634 -0.07634)">
      <defs>
       <path id="CMR17-4d" d="M 1338 4224 
C 1299 4320 1293 4320 1158 4320 
L 339 4320 
L 339 4160 
C 781 4160 851 4160 851 3875 
L 851 610 
C 851 451 851 153 339 153 
L 339 -13 
C 486 0 755 0 915 0 
C 1075 0 1344 0 1491 -13 
L 1491 153 
C 979 153 979 451 979 610 
L 979 4135 
L 986 4135 
L 2490 89 
C 2515 25 2528 -13 2579 -13 
C 2630 -13 2643 25 2669 89 
L 4186 4166 
L 4192 4166 
L 4192 438 
C 4192 153 4122 153 3680 153 
L 3680 -13 
C 3853 0 4198 0 4384 0 
C 4570 0 4922 0 5094 -13 
L 5094 153 
C 4653 153 4582 153 4582 438 
L 4582 3875 
C 4582 4160 4653 4160 5094 4160 
L 5094 4320 
L 4282 4320 
C 4147 4320 4141 4314 4102 4218 
L 2720 502 
L 1338 4224 
z
" transform="scale(0.015625)"/>
       <path id="CMR17-5a" d="M 3302 4230 
C 3302 4352 3296 4352 3162 4352 
L 442 4352 
L 378 2948 
L 493 2948 
C 531 3675 723 4192 1760 4192 
L 2816 4192 
L 339 204 
C 294 134 294 127 294 83 
C 294 0 307 0 435 0 
L 3245 0 
L 3334 1666 
L 3219 1666 
C 3162 829 3117 178 1894 178 
L 781 178 
L 3302 4230 
z
" transform="scale(0.015625)"/>
       <path id="CMR17-4e" d="M 1312 4250 
C 1267 4320 1261 4320 1139 4320 
L 326 4320 
L 326 4160 
L 448 4160 
C 704 4160 819 4129 838 4122 
L 838 610 
C 838 451 838 153 326 153 
L 326 -13 
C 474 0 742 0 902 0 
C 1062 0 1331 0 1478 -13 
L 1478 153 
C 966 153 966 451 966 610 
L 966 4033 
C 1011 3995 1011 3982 1056 3919 
L 3430 76 
C 3475 0 3494 0 3526 0 
C 3590 0 3590 19 3590 139 
L 3590 3705 
C 3590 3863 3590 4160 4102 4160 
L 4102 4326 
C 3955 4320 3686 4320 3526 4320 
C 3366 4320 3098 4320 2950 4326 
L 2950 4160 
C 3462 4160 3462 3862 3462 3703 
L 3462 763 
L 1312 4250 
z
" transform="scale(0.015625)"/>
      </defs>
      <use xlink:href="#CMR17-4d" transform="scale(0.996264)"/>
      <use xlink:href="#CMR17-65" transform="translate(84.686941 0) scale(0.996264)"/>
      <use xlink:href="#CMR17-61" transform="translate(125.172601 0) scale(0.996264)"/>
      <use xlink:href="#CMR17-6e" transform="translate(170.863078 0) scale(0.996264)"/>
      <use xlink:href="#CMR17-5a" transform="translate(251.834414 0) scale(0.996264)"/>
      <use xlink:href="#CMR17-4e" transform="translate(307.934586 0) scale(0.996264)"/>
      <use xlink:href="#CMR17-45" transform="translate(377.007015 0) scale(0.996264)"/>
      <use xlink:href="#CMR17-61" transform="translate(469.669282 0) scale(0.996264)"/>
      <use xlink:href="#CMR17-74" transform="translate(515.359759 0) scale(0.996264)"/>
      <use xlink:href="#CMR17-30" transform="translate(580.716493 0) scale(0.996264)"/>
      <use xlink:href="#CMMI12-3a" transform="translate(626.406971 0) scale(0.996264)"/>
      <use xlink:href="#CMR17-30" transform="translate(653.504148 0) scale(0.996264)"/>
      <use xlink:href="#CMR17-30" transform="translate(699.194625 0) scale(0.996264)"/>
      <use xlink:href="#CMR17-31" transform="translate(744.885102 0) scale(0.996264)"/>
     </g>
    </g>
    <g id="patch_8">
     <path d="M 80.45355 152.53899 
L 95.72155 152.53899 
L 95.72155 147.19519 
L 80.45355 147.19519 
z
" style="fill: #1f77b4; fill-opacity: 0.1; stroke: #1f77b4; stroke-opacity: 0.1; stroke-linejoin: miter"/>
    </g>
    <g id="text_15">
     <!-- Noiseless std: ±0.11  -->
     <g transform="translate(101.82875 152.53899) scale(0.07634 -0.07634)">
      <defs>
       <path id="CMR17-3a" d="M 1062 2491 
C 1062 2650 934 2752 800 2752 
C 672 2752 538 2650 538 2491 
C 538 2332 666 2230 800 2230 
C 928 2230 1062 2332 1062 2491 
z
M 1062 261 
C 1062 420 934 522 800 522 
C 672 522 538 420 538 261 
C 538 102 666 0 800 0 
C 928 0 1062 102 1062 261 
z
" transform="scale(0.015625)"/>
       <path id="SFRM3583-b1" d="M 2125 2189 
L 461 2189 
C 397 2189 320 2170 320 2086 
C 320 2003 397 1984 461 1984 
L 2125 1984 
L 2125 397 
L 442 397 
C 371 397 320 358 320 294 
C 320 217 397 192 461 192 
L 3872 192 
C 3904 192 3942 192 3981 192 
C 4058 192 4134 217 4134 297 
C 4134 353 4083 397 4006 397 
L 2330 397 
L 2330 1984 
L 3987 1984 
C 4051 1984 4134 2003 4134 2086 
C 4134 2170 4051 2189 3987 2189 
L 2330 2189 
L 2330 3882 
C 2330 3948 2310 4032 2227 4032 
C 2144 4032 2125 3948 2125 3882 
L 2125 2189 
z
" transform="scale(0.015625)"/>
       <path id="CMR17-2e" d="M 1062 261 
C 1062 420 934 522 800 522 
C 672 522 538 420 538 261 
C 538 102 666 0 800 0 
C 928 0 1062 102 1062 261 
z
" transform="scale(0.015625)"/>
      </defs>
      <use xlink:href="#CMR17-4e" transform="scale(0.996264)"/>
      <use xlink:href="#CMR17-6f" transform="translate(69.07243 0) scale(0.996264)"/>
      <use xlink:href="#CMR17-69" transform="translate(114.762907 0) scale(0.996264)"/>
      <use xlink:href="#CMR17-73" transform="translate(139.633965 0) scale(0.996264)"/>
      <use xlink:href="#CMR17-65" transform="translate(175.435303 0) scale(0.996264)"/>
      <use xlink:href="#CMR17-6c" transform="translate(215.920964 0) scale(0.996264)"/>
      <use xlink:href="#CMR17-65" transform="translate(240.792022 0) scale(0.996264)"/>
      <use xlink:href="#CMR17-73" transform="translate(281.277682 0) scale(0.996264)"/>
      <use xlink:href="#CMR17-73" transform="translate(317.07902 0) scale(0.996264)"/>
      <use xlink:href="#CMR17-73" transform="translate(382.956324 0) scale(0.996264)"/>
      <use xlink:href="#CMR17-74" transform="translate(418.757662 0) scale(0.996264)"/>
      <use xlink:href="#CMR17-64" transform="translate(454.038429 0) scale(0.996264)"/>
      <use xlink:href="#CMR17-3a" transform="translate(504.933799 0) scale(0.996264)"/>
      <use xlink:href="#SFRM3583-b1" transform="translate(570.290518 0) scale(0.356961)"/>
      <use xlink:href="#CMR17-30" transform="translate(595.148853 0) scale(0.996264)"/>
      <use xlink:href="#CMR17-2e" transform="translate(640.83933 0) scale(0.996264)"/>
      <use xlink:href="#CMR17-31" transform="translate(665.710388 0) scale(0.996264)"/>
      <use xlink:href="#CMR17-31" transform="translate(711.400866 0) scale(0.996264)"/>
     </g>
    </g>
    <g id="line2d_30">
     <path d="M 80.45355 160.506735 
L 88.08755 160.506735 
L 95.72155 160.506735 
" style="fill: none; stroke: #1f77b4; stroke-width: 1.5; stroke-linecap: square"/>
    </g>
    <g id="text_16">
     <!-- Noiseless mean $E_{VQE}$ -->
     <g transform="translate(101.82875 163.178635) scale(0.07634 -0.07634)">
      <defs>
       <path id="CMMI12-45" d="M 4448 1489 
C 4454 1508 4474 1554 4474 1579 
C 4474 1611 4448 1643 4410 1643 
C 4384 1643 4371 1637 4352 1617 
C 4339 1611 4339 1598 4282 1469 
C 3904 570 3629 185 2605 185 
L 1670 185 
C 1581 185 1568 185 1530 192 
C 1459 198 1453 211 1453 262 
C 1453 307 1466 345 1478 403 
L 1920 2176 
L 2554 2176 
C 3053 2176 3091 2066 3091 1874 
C 3091 1810 3091 1752 3046 1560 
C 3034 1534 3027 1508 3027 1489 
C 3027 1444 3059 1425 3098 1425 
C 3155 1425 3162 1469 3187 1559 
L 3552 3042 
C 3552 3073 3526 3105 3488 3105 
C 3430 3105 3424 3080 3398 2990 
C 3270 2501 3142 2361 2573 2361 
L 1965 2361 
L 2362 3930 
C 2419 4154 2432 4154 2694 4154 
L 3610 4154 
C 4397 4154 4557 3943 4557 3458 
C 4557 3451 4557 3273 4531 3062 
C 4525 3036 4518 2998 4518 2985 
C 4518 2934 4550 2915 4589 2915 
C 4634 2915 4659 2941 4672 3055 
L 4806 4174 
C 4806 4195 4819 4263 4819 4277 
C 4819 4352 4762 4352 4646 4352 
L 1523 4352 
C 1402 4352 1338 4352 1338 4229 
C 1338 4154 1382 4154 1491 4154 
C 1888 4154 1888 4114 1888 4052 
C 1888 4020 1882 3994 1862 3924 
L 998 473 
C 941 249 928 185 480 185 
C 358 185 294 185 294 70 
C 294 0 333 0 461 0 
L 3674 0 
C 3814 0 3821 6 3866 110 
L 4448 1489 
z
" transform="scale(0.015625)"/>
       <path id="CMMI12-56" d="M 3962 3640 
C 4179 3984 4378 4136 4704 4162 
C 4768 4168 4819 4168 4819 4282 
C 4819 4308 4806 4346 4749 4346 
C 4634 4346 4358 4346 4243 4346 
C 4058 4346 3866 4346 3686 4346 
C 3635 4346 3571 4346 3571 4226 
C 3571 4168 3629 4162 3654 4162 
C 3891 4143 3917 4029 3917 3952 
C 3917 3857 3827 3710 3821 3704 
L 1811 540 
L 1363 3969 
C 1363 4160 1696 4160 1766 4160 
C 1862 4160 1920 4160 1920 4282 
C 1920 4346 1850 4346 1830 4346 
C 1722 4346 1594 4346 1485 4346 
L 1126 4346 
C 659 4346 467 4346 461 4346 
C 422 4346 346 4346 346 4230 
C 346 4160 390 4160 493 4160 
C 819 4160 838 4102 858 3944 
L 1370 24 
C 1389 -109 1389 -128 1478 -128 
C 1555 -128 1587 -109 1651 -8 
L 3962 3640 
z
" transform="scale(0.015625)"/>
       <path id="CMMI12-51" d="M 2726 45 
C 3827 490 4646 1663 4646 2829 
C 4646 3893 3955 4544 3059 4544 
C 1690 4544 307 3062 307 1573 
C 307 561 973 -128 1901 -128 
C 2118 -128 2330 -96 2534 -33 
C 2496 -411 2496 -442 2496 -562 
C 2496 -744 2496 -1216 3008 -1216 
C 3770 -1216 4051 -37 4051 2 
C 4051 39 4026 64 3994 64 
C 3955 64 3942 34 3923 -36 
C 3782 -429 3450 -654 3168 -654 
C 2842 -654 2758 -435 2726 45 
z
M 1574 77 
C 1069 252 826 787 826 1379 
C 826 1831 992 2689 1414 3340 
C 1888 4075 2522 4404 3021 4404 
C 3686 4404 4134 3862 4134 3024 
C 4134 2547 3910 948 2707 240 
C 2675 571 2586 960 2163 960 
C 1818 960 1523 609 1523 291 
C 1523 220 1549 123 1574 77 
z
M 2547 156 
C 2317 52 2118 12 1939 12 
C 1875 12 1651 12 1651 298 
C 1651 533 1875 832 2163 832 
C 2483 832 2554 611 2554 286 
C 2554 246 2554 194 2547 156 
z
" transform="scale(0.015625)"/>
      </defs>
      <use xlink:href="#CMR17-4e" transform="scale(0.996264)"/>
      <use xlink:href="#CMR17-6f" transform="translate(69.07243 0) scale(0.996264)"/>
      <use xlink:href="#CMR17-69" transform="translate(114.762907 0) scale(0.996264)"/>
      <use xlink:href="#CMR17-73" transform="translate(139.633965 0) scale(0.996264)"/>
      <use xlink:href="#CMR17-65" transform="translate(175.435303 0) scale(0.996264)"/>
      <use xlink:href="#CMR17-6c" transform="translate(215.920964 0) scale(0.996264)"/>
      <use xlink:href="#CMR17-65" transform="translate(240.792022 0) scale(0.996264)"/>
      <use xlink:href="#CMR17-73" transform="translate(281.277682 0) scale(0.996264)"/>
      <use xlink:href="#CMR17-73" transform="translate(317.07902 0) scale(0.996264)"/>
      <use xlink:href="#CMR17-6d" transform="translate(382.956324 0) scale(0.996264)"/>
      <use xlink:href="#CMR17-65" transform="translate(459.875914 0) scale(0.996264)"/>
      <use xlink:href="#CMR17-61" transform="translate(500.361574 0) scale(0.996264)"/>
      <use xlink:href="#CMR17-6e" transform="translate(546.052052 0) scale(0.996264)"/>
      <use xlink:href="#CMMI12-45" transform="translate(627.023388 0) scale(0.996264)"/>
      <use xlink:href="#CMMI12-56" transform="translate(699.234605 -14.943915) scale(0.697382)"/>
      <use xlink:href="#CMMI12-51" transform="translate(754.217476 -14.943915) scale(0.697382)"/>
      <use xlink:href="#CMMI12-45" transform="translate(808.299504 -14.943915) scale(0.697382)"/>
     </g>
    </g>
    <g id="patch_9">
     <path d="M 80.45355 174.461102 
L 95.72155 174.461102 
L 95.72155 169.117302 
L 80.45355 169.117302 
z
" style="fill: #ff7f0e; fill-opacity: 0.1; stroke: #ff7f0e; stroke-opacity: 0.1; stroke-linejoin: miter"/>
    </g>
    <g id="text_17">
     <!-- VQE at 0.001 std: ±0.13  -->
     <g transform="translate(101.82875 174.461102) scale(0.07634 -0.07634)">
      <defs>
       <path id="CMR17-51" d="M 3027 83 
C 3789 408 4307 1236 4307 2193 
C 4307 3499 3366 4480 2304 4480 
C 1216 4480 294 3488 294 2199 
C 294 928 1216 -64 2304 -64 
C 2451 -64 2656 -45 2899 38 
C 3008 -747 3078 -1216 3629 -1216 
C 4307 -1216 4339 -213 4339 -33 
C 4339 32 4339 76 4294 76 
C 4262 76 4256 31 4256 18 
C 4211 -603 3866 -732 3661 -732 
C 3283 -732 3149 -394 3027 83 
z
M 1958 100 
C 1293 310 768 1017 768 2199 
C 768 3711 1606 4365 2298 4365 
C 3014 4365 3834 3686 3834 2198 
C 3834 1124 3405 527 2976 254 
C 2880 579 2726 960 2310 960 
C 2003 960 1830 692 1830 450 
C 1830 304 1888 183 1958 100 
z
M 2874 192 
C 2618 57 2413 57 2304 57 
C 2016 57 1933 315 1933 454 
C 1933 650 2067 858 2310 858 
C 2720 858 2822 493 2874 192 
z
" transform="scale(0.015625)"/>
      </defs>
      <use xlink:href="#CMR17-56" transform="scale(0.996264)"/>
      <use xlink:href="#CMR17-51" transform="translate(66.469976 0) scale(0.996264)"/>
      <use xlink:href="#CMR17-45" transform="translate(138.184764 0) scale(0.996264)"/>
      <use xlink:href="#CMR17-61" transform="translate(230.847031 0) scale(0.996264)"/>
      <use xlink:href="#CMR17-74" transform="translate(276.537508 0) scale(0.996264)"/>
      <use xlink:href="#CMR17-30" transform="translate(341.894242 0) scale(0.996264)"/>
      <use xlink:href="#CMR17-2e" transform="translate(387.58472 0) scale(0.996264)"/>
      <use xlink:href="#CMR17-30" transform="translate(412.455778 0) scale(0.996264)"/>
      <use xlink:href="#CMR17-30" transform="translate(458.146255 0) scale(0.996264)"/>
      <use xlink:href="#CMR17-31" transform="translate(503.836732 0) scale(0.996264)"/>
      <use xlink:href="#CMR17-73" transform="translate(579.603176 0) scale(0.996264)"/>
      <use xlink:href="#CMR17-74" transform="translate(615.404513 0) scale(0.996264)"/>
      <use xlink:href="#CMR17-64" transform="translate(650.685281 0) scale(0.996264)"/>
      <use xlink:href="#CMR17-3a" transform="translate(701.580651 0) scale(0.996264)"/>
      <use xlink:href="#SFRM3583-b1" transform="translate(766.93737 0) scale(0.356961)"/>
      <use xlink:href="#CMR17-30" transform="translate(791.795704 0) scale(0.996264)"/>
      <use xlink:href="#CMR17-2e" transform="translate(837.486182 0) scale(0.996264)"/>
      <use xlink:href="#CMR17-31" transform="translate(862.35724 0) scale(0.996264)"/>
      <use xlink:href="#CMR17-33" transform="translate(908.047717 0) scale(0.996264)"/>
     </g>
    </g>
    <g id="line2d_31">
     <path d="M 80.45355 183.321547 
L 88.08755 183.321547 
L 95.72155 183.321547 
" style="fill: none; stroke: #ff7f0e; stroke-width: 1.5; stroke-linecap: square"/>
    </g>
    <g id="text_18">
     <!-- Mean $E'_{VQE}(\lambda_0)$ at 0.001 -->
     <g transform="translate(101.82875 185.993447) scale(0.07634 -0.07634)">
      <defs>
       <path id="CMSY10-30" d="M 1619 3040 
C 1651 3117 1677 3174 1677 3238 
C 1677 3424 1510 3578 1312 3578 
C 1133 3578 1018 3456 973 3290 
L 211 493 
C 211 480 186 410 186 403 
C 186 333 352 288 403 288 
C 442 288 448 307 486 390 
L 1619 3040 
z
" transform="scale(0.015625)"/>
       <path id="CMR17-28" d="M 1958 -1561 
C 1958 -1555 1958 -1542 1939 -1523 
C 1645 -1224 858 -407 858 1581 
C 858 3569 1632 4379 1946 4697 
C 1946 4704 1958 4717 1958 4736 
C 1958 4755 1939 4768 1914 4768 
C 1843 4768 1299 4296 986 3594 
C 666 2887 576 2199 576 1588 
C 576 1128 621 351 1005 -471 
C 1312 -1135 1837 -1600 1914 -1600 
C 1946 -1600 1958 -1587 1958 -1561 
z
" transform="scale(0.015625)"/>
       <path id="CMMI12-15" d="M 1978 3965 
C 1818 4416 1312 4416 1229 4416 
C 1190 4416 1120 4416 1120 4352 
C 1120 4302 1158 4295 1190 4289 
C 1286 4276 1363 4263 1466 4080 
C 1530 3959 2189 2059 2189 2046 
C 2189 2040 2182 2033 2131 1982 
L 467 311 
C 390 234 339 183 339 102 
C 339 12 416 -64 518 -64 
C 544 -64 614 -51 653 -13 
C 755 82 1670 1194 2253 1881 
C 2419 1383 2624 797 2822 261 
C 2854 166 2886 76 2976 -6 
C 3040 -64 3053 -64 3232 -64 
L 3354 -64 
C 3379 -64 3424 -64 3424 -13 
C 3424 13 3418 19 3392 45 
C 3334 115 3290 229 3264 306 
L 1978 3965 
z
" transform="scale(0.015625)"/>
       <path id="CMR17-29" d="M 1683 1581 
C 1683 2040 1638 2817 1254 3639 
C 947 4303 422 4768 346 4768 
C 326 4768 301 4761 301 4729 
C 301 4717 307 4710 314 4697 
C 621 4378 1402 3568 1402 1584 
C 1402 -407 627 -1217 314 -1537 
C 307 -1549 301 -1556 301 -1568 
C 301 -1600 326 -1600 346 -1600 
C 416 -1600 960 -1128 1274 -426 
C 1594 281 1683 969 1683 1581 
z
" transform="scale(0.015625)"/>
      </defs>
      <use xlink:href="#CMR17-4d" transform="scale(0.996264)"/>
      <use xlink:href="#CMR17-65" transform="translate(84.686941 0) scale(0.996264)"/>
      <use xlink:href="#CMR17-61" transform="translate(125.172601 0) scale(0.996264)"/>
      <use xlink:href="#CMR17-6e" transform="translate(170.863078 0) scale(0.996264)"/>
      <use xlink:href="#CMMI12-45" transform="translate(251.834414 0) scale(0.996264)"/>
      <use xlink:href="#CMSY10-30" transform="translate(329.88605 36.153639) scale(0.697382)"/>
      <use xlink:href="#CMMI12-56" transform="translate(324.045632 -27.44057) scale(0.697382)"/>
      <use xlink:href="#CMMI12-51" transform="translate(379.028503 -27.44057) scale(0.697382)"/>
      <use xlink:href="#CMMI12-45" transform="translate(433.110531 -27.44057) scale(0.697382)"/>
      <use xlink:href="#CMR17-28" transform="translate(488.244568 0) scale(0.996264)"/>
      <use xlink:href="#CMMI12-15" transform="translate(523.525336 0) scale(0.996264)"/>
      <use xlink:href="#CMR17-30" transform="translate(580.429408 -14.943915) scale(0.697382)"/>
      <use xlink:href="#CMR17-29" transform="translate(612.910722 0) scale(0.996264)"/>
      <use xlink:href="#CMR17-61" transform="translate(678.267456 0) scale(0.996264)"/>
      <use xlink:href="#CMR17-74" transform="translate(723.957933 0) scale(0.996264)"/>
      <use xlink:href="#CMR17-30" transform="translate(789.314667 0) scale(0.996264)"/>
      <use xlink:href="#CMR17-2e" transform="translate(835.005144 0) scale(0.996264)"/>
      <use xlink:href="#CMR17-30" transform="translate(859.876203 0) scale(0.996264)"/>
      <use xlink:href="#CMR17-30" transform="translate(905.56668 0) scale(0.996264)"/>
      <use xlink:href="#CMR17-31" transform="translate(951.257157 0) scale(0.996264)"/>
     </g>
    </g>
   </g>
  </g>
  <g id="axes_2">
   <g id="patch_10">
    <path d="M 279.607927 303.237517 
L 448.92 303.237517 
L 448.92 11.88 
L 279.607927 11.88 
z
" style="fill: #ffffff"/>
   </g>
   <g id="PolyCollection_3">
    <defs>
     <path id="m3dcfc40169" d="M 287.30393 -213.438364 
L 287.30393 -127.11228 
L 325.783947 -127.11228 
L 364.263963 -127.11228 
L 402.74398 -127.11228 
L 441.223997 -127.11228 
L 441.223997 -213.438364 
L 441.223997 -213.438364 
L 402.74398 -213.438364 
L 364.263963 -213.438364 
L 325.783947 -213.438364 
L 287.30393 -213.438364 
z
" style="stroke: #1f77b4; stroke-opacity: 0.1"/>
    </defs>
    <g clip-path="url(#pa21bc9b9ae)">
     <use xlink:href="#m3dcfc40169" x="0" y="345.6" style="fill: #1f77b4; fill-opacity: 0.1; stroke: #1f77b4; stroke-opacity: 0.1"/>
    </g>
   </g>
   <g id="PolyCollection_4">
    <defs>
     <path id="mea1a5a023a" d="M 287.30393 -320.476476 
L 287.30393 -202.946018 
L 325.783947 -202.946018 
L 364.263963 -202.946018 
L 402.74398 -202.946018 
L 441.223997 -202.946018 
L 441.223997 -320.476476 
L 441.223997 -320.476476 
L 402.74398 -320.476476 
L 364.263963 -320.476476 
L 325.783947 -320.476476 
L 287.30393 -320.476476 
z
" style="stroke: #ff7f0e; stroke-opacity: 0.1"/>
    </defs>
    <g clip-path="url(#pa21bc9b9ae)">
     <use xlink:href="#mea1a5a023a" x="0" y="345.6" style="fill: #ff7f0e; fill-opacity: 0.1; stroke: #ff7f0e; stroke-opacity: 0.1"/>
    </g>
   </g>
   <g id="matplotlib.axis_3">
    <g id="xtick_6">
     <g id="line2d_32">
      <path d="M 287.30393 303.237517 
L 287.30393 11.88 
" clip-path="url(#pa21bc9b9ae)" style="fill: none; stroke: #b0b0b0; stroke-width: 0.8; stroke-linecap: square"/>
     </g>
     <g id="line2d_33">
      <g>
       <use xlink:href="#ma10910a087" x="287.30393" y="303.237517" style="stroke: #000000; stroke-width: 0.8"/>
      </g>
     </g>
     <g id="text_19">
      <!-- 1 -->
      <g transform="translate(284.564196 317.847864) scale(0.11 -0.11)">
       <use xlink:href="#CMR17-31" transform="scale(0.996264)"/>
      </g>
     </g>
    </g>
    <g id="xtick_7">
     <g id="line2d_34">
      <path d="M 325.783947 303.237517 
L 325.783947 11.88 
" clip-path="url(#pa21bc9b9ae)" style="fill: none; stroke: #b0b0b0; stroke-width: 0.8; stroke-linecap: square"/>
     </g>
     <g id="line2d_35">
      <g>
       <use xlink:href="#ma10910a087" x="325.783947" y="303.237517" style="stroke: #000000; stroke-width: 0.8"/>
      </g>
     </g>
     <g id="text_20">
      <!-- 2 -->
      <g transform="translate(323.044213 317.847864) scale(0.11 -0.11)">
       <use xlink:href="#CMR17-32" transform="scale(0.996264)"/>
      </g>
     </g>
    </g>
    <g id="xtick_8">
     <g id="line2d_36">
      <path d="M 364.263963 303.237517 
L 364.263963 11.88 
" clip-path="url(#pa21bc9b9ae)" style="fill: none; stroke: #b0b0b0; stroke-width: 0.8; stroke-linecap: square"/>
     </g>
     <g id="line2d_37">
      <g>
       <use xlink:href="#ma10910a087" x="364.263963" y="303.237517" style="stroke: #000000; stroke-width: 0.8"/>
      </g>
     </g>
     <g id="text_21">
      <!-- 3 -->
      <g transform="translate(361.52423 317.847864) scale(0.11 -0.11)">
       <use xlink:href="#CMR17-33" transform="scale(0.996264)"/>
      </g>
     </g>
    </g>
    <g id="xtick_9">
     <g id="line2d_38">
      <path d="M 402.74398 303.237517 
L 402.74398 11.88 
" clip-path="url(#pa21bc9b9ae)" style="fill: none; stroke: #b0b0b0; stroke-width: 0.8; stroke-linecap: square"/>
     </g>
     <g id="line2d_39">
      <g>
       <use xlink:href="#ma10910a087" x="402.74398" y="303.237517" style="stroke: #000000; stroke-width: 0.8"/>
      </g>
     </g>
     <g id="text_22">
      <!-- 4 -->
      <g transform="translate(400.004246 317.847864) scale(0.11 -0.11)">
       <use xlink:href="#CMR17-34" transform="scale(0.996264)"/>
      </g>
     </g>
    </g>
    <g id="xtick_10">
     <g id="line2d_40">
      <path d="M 441.223997 303.237517 
L 441.223997 11.88 
" clip-path="url(#pa21bc9b9ae)" style="fill: none; stroke: #b0b0b0; stroke-width: 0.8; stroke-linecap: square"/>
     </g>
     <g id="line2d_41">
      <g>
       <use xlink:href="#ma10910a087" x="441.223997" y="303.237517" style="stroke: #000000; stroke-width: 0.8"/>
      </g>
     </g>
     <g id="text_23">
      <!-- 5 -->
      <g transform="translate(438.484263 317.847864) scale(0.11 -0.11)">
       <use xlink:href="#CMR17-35" transform="scale(0.996264)"/>
      </g>
     </g>
    </g>
    <g id="text_24">
     <!-- Polynomial degree -->
     <g transform="translate(320.336923 331.589105) scale(0.11 -0.11)">
      <use xlink:href="#CMR17-50" transform="scale(0.996264)"/>
      <use xlink:href="#CMR17-6f" transform="translate(59.983847 0) scale(0.996264)"/>
      <use xlink:href="#CMR17-6c" transform="translate(105.674324 0) scale(0.996264)"/>
      <use xlink:href="#CMR17-79" transform="translate(130.545382 0) scale(0.996264)"/>
      <use xlink:href="#CMR17-6e" transform="translate(178.838298 0) scale(0.996264)"/>
      <use xlink:href="#CMR17-6f" transform="translate(229.733668 0) scale(0.996264)"/>
      <use xlink:href="#CMR17-6d" transform="translate(275.424145 0) scale(0.996264)"/>
      <use xlink:href="#CMR17-69" transform="translate(352.343735 0) scale(0.996264)"/>
      <use xlink:href="#CMR17-61" transform="translate(377.214793 0) scale(0.996264)"/>
      <use xlink:href="#CMR17-6c" transform="translate(422.90527 0) scale(0.996264)"/>
      <use xlink:href="#CMR17-64" transform="translate(477.852295 0) scale(0.996264)"/>
      <use xlink:href="#CMR17-65" transform="translate(528.747665 0) scale(0.996264)"/>
      <use xlink:href="#CMR17-67" transform="translate(569.233325 0) scale(0.996264)"/>
      <use xlink:href="#CMR17-72" transform="translate(614.923803 0) scale(0.996264)"/>
      <use xlink:href="#CMR17-65" transform="translate(650.20457 0) scale(0.996264)"/>
      <use xlink:href="#CMR17-65" transform="translate(690.690231 0) scale(0.996264)"/>
     </g>
    </g>
   </g>
   <g id="matplotlib.axis_4">
    <g id="ytick_6">
     <g id="line2d_42">
      <path d="M 279.607927 263.312653 
L 448.92 263.312653 
" clip-path="url(#pa21bc9b9ae)" style="fill: none; stroke: #b0b0b0; stroke-width: 0.8; stroke-linecap: square"/>
     </g>
     <g id="line2d_43">
      <g>
       <use xlink:href="#mc97c2f044d" x="279.607927" y="263.312653" style="stroke: #000000; stroke-width: 0.8"/>
      </g>
     </g>
     <g id="text_25">
      <!-- $\mathdefault{−8.5}$ -->
      <g transform="translate(250.081241 267.117826) scale(0.11 -0.11)">
       <use xlink:href="#CMSY10-0" transform="scale(0.996264)"/>
       <use xlink:href="#CMR17-38" transform="translate(77.487468 0) scale(0.996264)"/>
       <use xlink:href="#CMMI12-3a" transform="translate(123.177945 0) scale(0.996264)"/>
       <use xlink:href="#CMR17-35" transform="translate(150.275122 0) scale(0.996264)"/>
      </g>
     </g>
    </g>
    <g id="ytick_7">
     <g id="line2d_44">
      <path d="M 279.607927 223.353917 
L 448.92 223.353917 
" clip-path="url(#pa21bc9b9ae)" style="fill: none; stroke: #b0b0b0; stroke-width: 0.8; stroke-linecap: square"/>
     </g>
     <g id="line2d_45">
      <g>
       <use xlink:href="#mc97c2f044d" x="279.607927" y="223.353917" style="stroke: #000000; stroke-width: 0.8"/>
      </g>
     </g>
     <g id="text_26">
      <!-- $\mathdefault{−8.4}$ -->
      <g transform="translate(250.081241 227.15909) scale(0.11 -0.11)">
       <use xlink:href="#CMSY10-0" transform="scale(0.996264)"/>
       <use xlink:href="#CMR17-38" transform="translate(77.487468 0) scale(0.996264)"/>
       <use xlink:href="#CMMI12-3a" transform="translate(123.177945 0) scale(0.996264)"/>
       <use xlink:href="#CMR17-34" transform="translate(150.275122 0) scale(0.996264)"/>
      </g>
     </g>
    </g>
    <g id="ytick_8">
     <g id="line2d_46">
      <path d="M 279.607927 183.39518 
L 448.92 183.39518 
" clip-path="url(#pa21bc9b9ae)" style="fill: none; stroke: #b0b0b0; stroke-width: 0.8; stroke-linecap: square"/>
     </g>
     <g id="line2d_47">
      <g>
       <use xlink:href="#mc97c2f044d" x="279.607927" y="183.39518" style="stroke: #000000; stroke-width: 0.8"/>
      </g>
     </g>
     <g id="text_27">
      <!-- $\mathdefault{−8.3}$ -->
      <g transform="translate(250.081241 187.200354) scale(0.11 -0.11)">
       <use xlink:href="#CMSY10-0" transform="scale(0.996264)"/>
       <use xlink:href="#CMR17-38" transform="translate(77.487468 0) scale(0.996264)"/>
       <use xlink:href="#CMMI12-3a" transform="translate(123.177945 0) scale(0.996264)"/>
       <use xlink:href="#CMR17-33" transform="translate(150.275122 0) scale(0.996264)"/>
      </g>
     </g>
    </g>
    <g id="ytick_9">
     <g id="line2d_48">
      <path d="M 279.607927 143.436444 
L 448.92 143.436444 
" clip-path="url(#pa21bc9b9ae)" style="fill: none; stroke: #b0b0b0; stroke-width: 0.8; stroke-linecap: square"/>
     </g>
     <g id="line2d_49">
      <g>
       <use xlink:href="#mc97c2f044d" x="279.607927" y="143.436444" style="stroke: #000000; stroke-width: 0.8"/>
      </g>
     </g>
     <g id="text_28">
      <!-- $\mathdefault{−8.2}$ -->
      <g transform="translate(250.081241 147.241617) scale(0.11 -0.11)">
       <use xlink:href="#CMSY10-0" transform="scale(0.996264)"/>
       <use xlink:href="#CMR17-38" transform="translate(77.487468 0) scale(0.996264)"/>
       <use xlink:href="#CMMI12-3a" transform="translate(123.177945 0) scale(0.996264)"/>
       <use xlink:href="#CMR17-32" transform="translate(150.275122 0) scale(0.996264)"/>
      </g>
     </g>
    </g>
    <g id="ytick_10">
     <g id="line2d_50">
      <path d="M 279.607927 103.477707 
L 448.92 103.477707 
" clip-path="url(#pa21bc9b9ae)" style="fill: none; stroke: #b0b0b0; stroke-width: 0.8; stroke-linecap: square"/>
     </g>
     <g id="line2d_51">
      <g>
       <use xlink:href="#mc97c2f044d" x="279.607927" y="103.477707" style="stroke: #000000; stroke-width: 0.8"/>
      </g>
     </g>
     <g id="text_29">
      <!-- $\mathdefault{−8.1}$ -->
      <g transform="translate(250.081241 107.282881) scale(0.11 -0.11)">
       <use xlink:href="#CMSY10-0" transform="scale(0.996264)"/>
       <use xlink:href="#CMR17-38" transform="translate(77.487468 0) scale(0.996264)"/>
       <use xlink:href="#CMMI12-3a" transform="translate(123.177945 0) scale(0.996264)"/>
       <use xlink:href="#CMR17-31" transform="translate(150.275122 0) scale(0.996264)"/>
      </g>
     </g>
    </g>
    <g id="ytick_11">
     <g id="line2d_52">
      <path d="M 279.607927 63.518971 
L 448.92 63.518971 
" clip-path="url(#pa21bc9b9ae)" style="fill: none; stroke: #b0b0b0; stroke-width: 0.8; stroke-linecap: square"/>
     </g>
     <g id="line2d_53">
      <g>
       <use xlink:href="#mc97c2f044d" x="279.607927" y="63.518971" style="stroke: #000000; stroke-width: 0.8"/>
      </g>
     </g>
     <g id="text_30">
      <!-- $\mathdefault{−8.0}$ -->
      <g transform="translate(250.081241 67.324144) scale(0.11 -0.11)">
       <use xlink:href="#CMSY10-0" transform="scale(0.996264)"/>
       <use xlink:href="#CMR17-38" transform="translate(77.487468 0) scale(0.996264)"/>
       <use xlink:href="#CMMI12-3a" transform="translate(123.177945 0) scale(0.996264)"/>
       <use xlink:href="#CMR17-30" transform="translate(150.275122 0) scale(0.996264)"/>
      </g>
     </g>
    </g>
    <g id="ytick_12">
     <g id="line2d_54">
      <path d="M 279.607927 23.560235 
L 448.92 23.560235 
" clip-path="url(#pa21bc9b9ae)" style="fill: none; stroke: #b0b0b0; stroke-width: 0.8; stroke-linecap: square"/>
     </g>
     <g id="line2d_55">
      <g>
       <use xlink:href="#mc97c2f044d" x="279.607927" y="23.560235" style="stroke: #000000; stroke-width: 0.8"/>
      </g>
     </g>
     <g id="text_31">
      <!-- $\mathdefault{−7.9}$ -->
      <g transform="translate(250.081241 27.365408) scale(0.11 -0.11)">
       <defs>
        <path id="CMR17-39" d="M 2253 1864 
C 2253 464 1670 31 1190 31 
C 1043 31 685 31 538 294 
C 704 268 826 357 826 518 
C 826 692 685 749 595 749 
C 538 749 365 723 365 506 
C 365 71 742 -128 1203 -128 
C 1939 -128 2688 674 2688 2073 
C 2688 3817 1971 4179 1485 4179 
C 851 4179 243 3628 243 2778 
C 243 1991 762 1408 1414 1408 
C 1952 1408 2189 1903 2253 2112 
L 2253 1864 
z
M 1427 1510 
C 1254 1510 1011 1542 813 1922 
C 678 2169 678 2461 678 2771 
C 678 3146 678 3405 858 3684 
C 947 3817 1114 4032 1485 4032 
C 2240 4032 2240 2885 2240 2632 
C 2240 2182 2035 1510 1427 1510 
z
" transform="scale(0.015625)"/>
       </defs>
       <use xlink:href="#CMSY10-0" transform="scale(0.996264)"/>
       <use xlink:href="#CMR17-37" transform="translate(77.487468 0) scale(0.996264)"/>
       <use xlink:href="#CMMI12-3a" transform="translate(123.177945 0) scale(0.996264)"/>
       <use xlink:href="#CMR17-39" transform="translate(150.275122 0) scale(0.996264)"/>
      </g>
     </g>
    </g>
    <g id="text_32">
     <!-- Expectation values -->
     <g transform="translate(243.950347 202.870894) rotate(-90) scale(0.11 -0.11)">
      <use xlink:href="#CMR17-45" transform="scale(0.996264)"/>
      <use xlink:href="#CMR17-78" transform="translate(62.586301 0) scale(0.996264)"/>
      <use xlink:href="#CMR17-70" transform="translate(110.879216 0) scale(0.996264)"/>
      <use xlink:href="#CMR17-65" transform="translate(164.377025 0) scale(0.996264)"/>
      <use xlink:href="#CMR17-63" transform="translate(204.862685 0) scale(0.996264)"/>
      <use xlink:href="#CMR17-74" transform="translate(245.348346 0) scale(0.996264)"/>
      <use xlink:href="#CMR17-61" transform="translate(280.629114 0) scale(0.996264)"/>
      <use xlink:href="#CMR17-74" transform="translate(326.319591 0) scale(0.996264)"/>
      <use xlink:href="#CMR17-69" transform="translate(361.600359 0) scale(0.996264)"/>
      <use xlink:href="#CMR17-6f" transform="translate(386.471417 0) scale(0.996264)"/>
      <use xlink:href="#CMR17-6e" transform="translate(432.161894 0) scale(0.996264)"/>
      <use xlink:href="#CMR17-76" transform="translate(513.13323 0) scale(0.996264)"/>
      <use xlink:href="#CMR17-61" transform="translate(556.221329 0) scale(0.996264)"/>
      <use xlink:href="#CMR17-6c" transform="translate(601.911807 0) scale(0.996264)"/>
      <use xlink:href="#CMR17-75" transform="translate(626.782865 0) scale(0.996264)"/>
      <use xlink:href="#CMR17-65" transform="translate(677.678235 0) scale(0.996264)"/>
      <use xlink:href="#CMR17-73" transform="translate(718.163895 0) scale(0.996264)"/>
     </g>
    </g>
   </g>
   <g id="line2d_56">
    <path d="M 279.607927 289.993994 
L 448.92 289.993994 
" clip-path="url(#pa21bc9b9ae)" style="fill: none; stroke: #ff0000; stroke-width: 0.8; stroke-linecap: square"/>
   </g>
   <g id="line2d_57">
    <path d="M 287.30393 166.880799 
L 325.783947 164.120019 
L 364.263963 171.71267 
L 402.74398 174.131287 
L 441.223997 171.551074 
" clip-path="url(#pa21bc9b9ae)" style="fill: none; stroke-dasharray: 0.8,1.32; stroke-dashoffset: 0; stroke: #e377c2; stroke-width: 0.8"/>
    <g clip-path="url(#pa21bc9b9ae)">
     <use xlink:href="#m466e71e3ee" x="287.30393" y="166.880799" style="fill: #e377c2; stroke: #e377c2"/>
     <use xlink:href="#m466e71e3ee" x="325.783947" y="164.120019" style="fill: #e377c2; stroke: #e377c2"/>
     <use xlink:href="#m466e71e3ee" x="364.263963" y="171.71267" style="fill: #e377c2; stroke: #e377c2"/>
     <use xlink:href="#m466e71e3ee" x="402.74398" y="174.131287" style="fill: #e377c2; stroke: #e377c2"/>
     <use xlink:href="#m466e71e3ee" x="441.223997" y="171.551074" style="fill: #e377c2; stroke: #e377c2"/>
    </g>
   </g>
   <g id="LineCollection_2">
    <path d="M 287.30393 223.759178 
L 287.30393 110.00242 
" clip-path="url(#pa21bc9b9ae)" style="fill: none; stroke: #e377c2; stroke-width: 0.8"/>
    <path d="M 325.783947 221.095834 
L 325.783947 107.144204 
" clip-path="url(#pa21bc9b9ae)" style="fill: none; stroke: #e377c2; stroke-width: 0.8"/>
    <path d="M 364.263963 228.441633 
L 364.263963 114.983708 
" clip-path="url(#pa21bc9b9ae)" style="fill: none; stroke: #e377c2; stroke-width: 0.8"/>
    <path d="M 402.74398 230.568624 
L 402.74398 117.693949 
" clip-path="url(#pa21bc9b9ae)" style="fill: none; stroke: #e377c2; stroke-width: 0.8"/>
    <path d="M 441.223997 228.030471 
L 441.223997 115.071677 
" clip-path="url(#pa21bc9b9ae)" style="fill: none; stroke: #e377c2; stroke-width: 0.8"/>
   </g>
   <g id="line2d_58">
    <g clip-path="url(#pa21bc9b9ae)">
     <use xlink:href="#md8be741d5f" x="287.30393" y="223.759178" style="fill: #e377c2; stroke: #e377c2; stroke-width: 2"/>
     <use xlink:href="#md8be741d5f" x="325.783947" y="221.095834" style="fill: #e377c2; stroke: #e377c2; stroke-width: 2"/>
     <use xlink:href="#md8be741d5f" x="364.263963" y="228.441633" style="fill: #e377c2; stroke: #e377c2; stroke-width: 2"/>
     <use xlink:href="#md8be741d5f" x="402.74398" y="230.568624" style="fill: #e377c2; stroke: #e377c2; stroke-width: 2"/>
     <use xlink:href="#md8be741d5f" x="441.223997" y="228.030471" style="fill: #e377c2; stroke: #e377c2; stroke-width: 2"/>
    </g>
   </g>
   <g id="line2d_59">
    <g clip-path="url(#pa21bc9b9ae)">
     <use xlink:href="#md8be741d5f" x="287.30393" y="110.00242" style="fill: #e377c2; stroke: #e377c2; stroke-width: 2"/>
     <use xlink:href="#md8be741d5f" x="325.783947" y="107.144204" style="fill: #e377c2; stroke: #e377c2; stroke-width: 2"/>
     <use xlink:href="#md8be741d5f" x="364.263963" y="114.983708" style="fill: #e377c2; stroke: #e377c2; stroke-width: 2"/>
     <use xlink:href="#md8be741d5f" x="402.74398" y="117.693949" style="fill: #e377c2; stroke: #e377c2; stroke-width: 2"/>
     <use xlink:href="#md8be741d5f" x="441.223997" y="115.071677" style="fill: #e377c2; stroke: #e377c2; stroke-width: 2"/>
    </g>
   </g>
   <g id="line2d_60">
    <path d="M 279.607927 175.324678 
L 448.92 175.324678 
" clip-path="url(#pa21bc9b9ae)" style="fill: none; stroke: #1f77b4; stroke-width: 1.5; stroke-linecap: square"/>
   </g>
   <g id="line2d_61">
    <path d="M 279.607927 83.888753 
L 448.92 83.888753 
" clip-path="url(#pa21bc9b9ae)" style="fill: none; stroke: #ff7f0e; stroke-width: 1.5; stroke-linecap: square"/>
   </g>
   <g id="line2d_62"/>
   <g id="patch_11">
    <path d="M 279.607927 303.237517 
L 279.607927 11.88 
" style="fill: none; stroke: #000000; stroke-width: 0.8; stroke-linejoin: miter; stroke-linecap: square"/>
   </g>
   <g id="patch_12">
    <path d="M 448.92 303.237517 
L 448.92 11.88 
" style="fill: none; stroke: #000000; stroke-width: 0.8; stroke-linejoin: miter; stroke-linecap: square"/>
   </g>
   <g id="patch_13">
    <path d="M 279.607927 303.237517 
L 448.92 303.237517 
" style="fill: none; stroke: #000000; stroke-width: 0.8; stroke-linejoin: miter; stroke-linecap: square"/>
   </g>
   <g id="patch_14">
    <path d="M 279.607927 11.88 
L 448.92 11.88 
" style="fill: none; stroke: #000000; stroke-width: 0.8; stroke-linejoin: miter; stroke-linecap: square"/>
   </g>
   <g id="legend_2">
    <g id="patch_15">
     <path d="M 284.066227 300.053017 
L 394.412391 300.053017 
Q 395.686191 300.053017 395.686191 298.779217 
L 395.686191 243.052344 
Q 395.686191 241.778544 394.412391 241.778544 
L 284.066227 241.778544 
Q 282.792427 241.778544 282.792427 243.052344 
L 282.792427 298.779217 
Q 282.792427 300.053017 284.066227 300.053017 
z
" style="fill: #ffffff; opacity: 0.8; stroke: #cccccc; stroke-linejoin: miter"/>
    </g>
    <g id="line2d_63">
     <path d="M 285.340027 246.555294 
L 291.709027 246.555294 
L 298.078027 246.555294 
" style="fill: none; stroke: #ff0000; stroke-width: 0.8; stroke-linecap: square"/>
    </g>
    <g id="text_33">
     <!-- Exact Value -->
     <g transform="translate(303.173227 248.784444) scale(0.06369 -0.06369)">
      <use xlink:href="#CMR17-45" transform="scale(0.996264)"/>
      <use xlink:href="#CMR17-78" transform="translate(62.586301 0) scale(0.996264)"/>
      <use xlink:href="#CMR17-61" transform="translate(110.879216 0) scale(0.996264)"/>
      <use xlink:href="#CMR17-63" transform="translate(156.569693 0) scale(0.996264)"/>
      <use xlink:href="#CMR17-74" transform="translate(197.055354 0) scale(0.996264)"/>
      <use xlink:href="#CMR17-56" transform="translate(262.412088 0) scale(0.996264)"/>
      <use xlink:href="#CMR17-61" transform="translate(323.677263 0) scale(0.996264)"/>
      <use xlink:href="#CMR17-6c" transform="translate(369.36774 0) scale(0.996264)"/>
      <use xlink:href="#CMR17-75" transform="translate(394.238798 0) scale(0.996264)"/>
      <use xlink:href="#CMR17-65" transform="translate(445.134168 0) scale(0.996264)"/>
     </g>
    </g>
    <g id="line2d_64">
     <path d="M 285.340027 255.431886 
L 291.709027 255.431886 
L 298.078027 255.431886 
" style="fill: none; stroke-dasharray: 0.8,1.32; stroke-dashoffset: 0; stroke: #e377c2; stroke-width: 0.8"/>
     <g>
      <use xlink:href="#m466e71e3ee" x="291.709027" y="255.431886" style="fill: #e377c2; stroke: #e377c2"/>
     </g>
    </g>
    <g id="text_34">
     <!-- Mean ZNE at $0.0001$ -->
     <g transform="translate(303.173227 257.661036) scale(0.06369 -0.06369)">
      <use xlink:href="#CMR17-4d" transform="scale(0.996264)"/>
      <use xlink:href="#CMR17-65" transform="translate(84.686941 0) scale(0.996264)"/>
      <use xlink:href="#CMR17-61" transform="translate(125.172601 0) scale(0.996264)"/>
      <use xlink:href="#CMR17-6e" transform="translate(170.863078 0) scale(0.996264)"/>
      <use xlink:href="#CMR17-5a" transform="translate(251.834414 0) scale(0.996264)"/>
      <use xlink:href="#CMR17-4e" transform="translate(307.934586 0) scale(0.996264)"/>
      <use xlink:href="#CMR17-45" transform="translate(377.007015 0) scale(0.996264)"/>
      <use xlink:href="#CMR17-61" transform="translate(469.669282 0) scale(0.996264)"/>
      <use xlink:href="#CMR17-74" transform="translate(515.359759 0) scale(0.996264)"/>
      <use xlink:href="#CMR17-30" transform="translate(580.716493 0) scale(0.996264)"/>
      <use xlink:href="#CMMI12-3a" transform="translate(626.406971 0) scale(0.996264)"/>
      <use xlink:href="#CMR17-30" transform="translate(653.504148 0) scale(0.996264)"/>
      <use xlink:href="#CMR17-30" transform="translate(699.194625 0) scale(0.996264)"/>
      <use xlink:href="#CMR17-30" transform="translate(744.885102 0) scale(0.996264)"/>
      <use xlink:href="#CMR17-31" transform="translate(790.575579 0) scale(0.996264)"/>
     </g>
    </g>
    <g id="patch_16">
     <path d="M 285.340027 266.537628 
L 298.078027 266.537628 
L 298.078027 262.079328 
L 285.340027 262.079328 
z
" style="fill: #1f77b4; fill-opacity: 0.1; stroke: #1f77b4; stroke-opacity: 0.1; stroke-linejoin: miter"/>
    </g>
    <g id="text_35">
     <!-- Noiseless std: ±0.11  -->
     <g transform="translate(303.173227 266.537628) scale(0.06369 -0.06369)">
      <use xlink:href="#CMR17-4e" transform="scale(0.996264)"/>
      <use xlink:href="#CMR17-6f" transform="translate(69.07243 0) scale(0.996264)"/>
      <use xlink:href="#CMR17-69" transform="translate(114.762907 0) scale(0.996264)"/>
      <use xlink:href="#CMR17-73" transform="translate(139.633965 0) scale(0.996264)"/>
      <use xlink:href="#CMR17-65" transform="translate(175.435303 0) scale(0.996264)"/>
      <use xlink:href="#CMR17-6c" transform="translate(215.920964 0) scale(0.996264)"/>
      <use xlink:href="#CMR17-65" transform="translate(240.792022 0) scale(0.996264)"/>
      <use xlink:href="#CMR17-73" transform="translate(281.277682 0) scale(0.996264)"/>
      <use xlink:href="#CMR17-73" transform="translate(317.07902 0) scale(0.996264)"/>
      <use xlink:href="#CMR17-73" transform="translate(382.956324 0) scale(0.996264)"/>
      <use xlink:href="#CMR17-74" transform="translate(418.757662 0) scale(0.996264)"/>
      <use xlink:href="#CMR17-64" transform="translate(454.038429 0) scale(0.996264)"/>
      <use xlink:href="#CMR17-3a" transform="translate(504.933799 0) scale(0.996264)"/>
      <use xlink:href="#SFRM3583-b1" transform="translate(570.290518 0) scale(0.356961)"/>
      <use xlink:href="#CMR17-30" transform="translate(595.148853 0) scale(0.996264)"/>
      <use xlink:href="#CMR17-2e" transform="translate(640.83933 0) scale(0.996264)"/>
      <use xlink:href="#CMR17-31" transform="translate(665.710388 0) scale(0.996264)"/>
      <use xlink:href="#CMR17-31" transform="translate(711.400866 0) scale(0.996264)"/>
     </g>
    </g>
    <g id="line2d_65">
     <path d="M 285.340027 273.18507 
L 291.709027 273.18507 
L 298.078027 273.18507 
" style="fill: none; stroke: #1f77b4; stroke-width: 1.5; stroke-linecap: square"/>
    </g>
    <g id="text_36">
     <!-- Noiseless mean $E_{VQE}$ -->
     <g transform="translate(303.173227 275.41422) scale(0.06369 -0.06369)">
      <use xlink:href="#CMR17-4e" transform="scale(0.996264)"/>
      <use xlink:href="#CMR17-6f" transform="translate(69.07243 0) scale(0.996264)"/>
      <use xlink:href="#CMR17-69" transform="translate(114.762907 0) scale(0.996264)"/>
      <use xlink:href="#CMR17-73" transform="translate(139.633965 0) scale(0.996264)"/>
      <use xlink:href="#CMR17-65" transform="translate(175.435303 0) scale(0.996264)"/>
      <use xlink:href="#CMR17-6c" transform="translate(215.920964 0) scale(0.996264)"/>
      <use xlink:href="#CMR17-65" transform="translate(240.792022 0) scale(0.996264)"/>
      <use xlink:href="#CMR17-73" transform="translate(281.277682 0) scale(0.996264)"/>
      <use xlink:href="#CMR17-73" transform="translate(317.07902 0) scale(0.996264)"/>
      <use xlink:href="#CMR17-6d" transform="translate(382.956324 0) scale(0.996264)"/>
      <use xlink:href="#CMR17-65" transform="translate(459.875914 0) scale(0.996264)"/>
      <use xlink:href="#CMR17-61" transform="translate(500.361574 0) scale(0.996264)"/>
      <use xlink:href="#CMR17-6e" transform="translate(546.052052 0) scale(0.996264)"/>
      <use xlink:href="#CMMI12-45" transform="translate(627.023388 0) scale(0.996264)"/>
      <use xlink:href="#CMMI12-56" transform="translate(699.234605 -14.943915) scale(0.697382)"/>
      <use xlink:href="#CMMI12-51" transform="translate(754.217476 -14.943915) scale(0.697382)"/>
      <use xlink:href="#CMMI12-45" transform="translate(808.299504 -14.943915) scale(0.697382)"/>
     </g>
    </g>
    <g id="patch_17">
     <path d="M 285.340027 284.978191 
L 298.078027 284.978191 
L 298.078027 280.519891 
L 285.340027 280.519891 
z
" style="fill: #ff7f0e; fill-opacity: 0.1; stroke: #ff7f0e; stroke-opacity: 0.1; stroke-linejoin: miter"/>
    </g>
    <g id="text_37">
     <!-- VQE at 0.0001 std: ±0.15  -->
     <g transform="translate(303.173227 284.978191) scale(0.06369 -0.06369)">
      <use xlink:href="#CMR17-56" transform="scale(0.996264)"/>
      <use xlink:href="#CMR17-51" transform="translate(66.469976 0) scale(0.996264)"/>
      <use xlink:href="#CMR17-45" transform="translate(138.184764 0) scale(0.996264)"/>
      <use xlink:href="#CMR17-61" transform="translate(230.847031 0) scale(0.996264)"/>
      <use xlink:href="#CMR17-74" transform="translate(276.537508 0) scale(0.996264)"/>
      <use xlink:href="#CMR17-30" transform="translate(341.894242 0) scale(0.996264)"/>
      <use xlink:href="#CMR17-2e" transform="translate(387.58472 0) scale(0.996264)"/>
      <use xlink:href="#CMR17-30" transform="translate(412.455778 0) scale(0.996264)"/>
      <use xlink:href="#CMR17-30" transform="translate(458.146255 0) scale(0.996264)"/>
      <use xlink:href="#CMR17-30" transform="translate(503.836732 0) scale(0.996264)"/>
      <use xlink:href="#CMR17-31" transform="translate(549.527209 0) scale(0.996264)"/>
      <use xlink:href="#CMR17-73" transform="translate(625.293653 0) scale(0.996264)"/>
      <use xlink:href="#CMR17-74" transform="translate(661.09499 0) scale(0.996264)"/>
      <use xlink:href="#CMR17-64" transform="translate(696.375758 0) scale(0.996264)"/>
      <use xlink:href="#CMR17-3a" transform="translate(747.271128 0) scale(0.996264)"/>
      <use xlink:href="#SFRM3583-b1" transform="translate(812.627847 0) scale(0.356961)"/>
      <use xlink:href="#CMR17-30" transform="translate(837.486182 0) scale(0.996264)"/>
      <use xlink:href="#CMR17-2e" transform="translate(883.176659 0) scale(0.996264)"/>
      <use xlink:href="#CMR17-31" transform="translate(908.047717 0) scale(0.996264)"/>
      <use xlink:href="#CMR17-35" transform="translate(953.738194 0) scale(0.996264)"/>
     </g>
    </g>
    <g id="line2d_66">
     <path d="M 285.340027 292.297569 
L 291.709027 292.297569 
L 298.078027 292.297569 
" style="fill: none; stroke: #ff7f0e; stroke-width: 1.5; stroke-linecap: square"/>
    </g>
    <g id="text_38">
     <!-- Mean $E'_{VQE}(\lambda_0)$ at 0.0001 -->
     <g transform="translate(303.173227 294.526719) scale(0.06369 -0.06369)">
      <use xlink:href="#CMR17-4d" transform="scale(0.996264)"/>
      <use xlink:href="#CMR17-65" transform="translate(84.686941 0) scale(0.996264)"/>
      <use xlink:href="#CMR17-61" transform="translate(125.172601 0) scale(0.996264)"/>
      <use xlink:href="#CMR17-6e" transform="translate(170.863078 0) scale(0.996264)"/>
      <use xlink:href="#CMMI12-45" transform="translate(251.834414 0) scale(0.996264)"/>
      <use xlink:href="#CMSY10-30" transform="translate(329.88605 36.153639) scale(0.697382)"/>
      <use xlink:href="#CMMI12-56" transform="translate(324.045632 -27.44057) scale(0.697382)"/>
      <use xlink:href="#CMMI12-51" transform="translate(379.028503 -27.44057) scale(0.697382)"/>
      <use xlink:href="#CMMI12-45" transform="translate(433.110531 -27.44057) scale(0.697382)"/>
      <use xlink:href="#CMR17-28" transform="translate(488.244568 0) scale(0.996264)"/>
      <use xlink:href="#CMMI12-15" transform="translate(523.525336 0) scale(0.996264)"/>
      <use xlink:href="#CMR17-30" transform="translate(580.429408 -14.943915) scale(0.697382)"/>
      <use xlink:href="#CMR17-29" transform="translate(612.910722 0) scale(0.996264)"/>
      <use xlink:href="#CMR17-61" transform="translate(678.267456 0) scale(0.996264)"/>
      <use xlink:href="#CMR17-74" transform="translate(723.957933 0) scale(0.996264)"/>
      <use xlink:href="#CMR17-30" transform="translate(789.314667 0) scale(0.996264)"/>
      <use xlink:href="#CMR17-2e" transform="translate(835.005144 0) scale(0.996264)"/>
      <use xlink:href="#CMR17-30" transform="translate(859.876203 0) scale(0.996264)"/>
      <use xlink:href="#CMR17-30" transform="translate(905.56668 0) scale(0.996264)"/>
      <use xlink:href="#CMR17-30" transform="translate(951.257157 0) scale(0.996264)"/>
      <use xlink:href="#CMR17-31" transform="translate(996.947634 0) scale(0.996264)"/>
     </g>
    </g>
   </g>
  </g>
 </g>
 <defs>
  <clipPath id="pe2001f59c3">
   <rect x="55.147927" y="11.88" width="169.312073" height="291.357517"/>
  </clipPath>
  <clipPath id="pa21bc9b9ae">
   <rect x="279.607927" y="11.88" width="169.312073" height="291.357517"/>
  </clipPath>
 </defs>
</svg>
